<svg id="a316cc58-85d0-41fe-8857-c72c78a85e0e" data-name="Layer 1" xmlns="http://www.w3.org/2000/svg" viewBox="0 0 512 512"><defs><style>.fecf291d-dc7b-434c-8247-7f0f0db81e97{fill:#fff;}</style></defs><path d="M512,65.83V0H450.13a44.79,44.79,0,0,1-44.87,44.72A44.79,44.79,0,0,1,360.4,0H299.59a44.79,44.79,0,0,1-44.86,44.72A44.79,44.79,0,0,1,209.86,0H149.05a44.79,44.79,0,0,1-44.86,44.72A44.79,44.79,0,0,1,59.32,0H0V65.83a44.79,44.79,0,0,1,44.86,44.72A44.78,44.78,0,0,1,0,155.26v59.51a44.79,44.79,0,0,1,44.86,44.72A44.78,44.78,0,0,1,0,304.2v59.51H0a44.79,44.79,0,0,1,44.86,44.72A44.78,44.78,0,0,1,0,453.14H0V512H59.32a44.87,44.87,0,0,1,89.73,0h60.81a44.87,44.87,0,0,1,89.73,0H360.4a44.87,44.87,0,0,1,89.73,0H512V453.15h0a44.72,44.72,0,1,1,0-89.43h0V304.2a44.72,44.72,0,1,1,0-89.43V155.26a44.72,44.72,0,1,1,0-89.43Z"/><path class="fecf291d-dc7b-434c-8247-7f0f0db81e97" d="M356.93,221.93q0,27.57-24.26,45.85-24.29,18-60,18H236.58v72.55H170.67v-202h101q39,0,62,17.7Q356.93,192.05,356.93,221.93ZM292,221.64q0-19.72-26.23-19.73H236.58v38.6h30.5q10.82,0,17.87-4.94T292,221.64Z"/></svg>