<svg id="Слой_1" data-name="Слой 1" xmlns="http://www.w3.org/2000/svg" xmlns:xlink="http://www.w3.org/1999/xlink" viewBox="0 0 566.93 566.93"><defs><style>.cls-1,.cls-4{fill:none;}.cls-2{clip-path:url(#clip-path);}.cls-3{fill:#fff;}.cls-3,.cls-4{stroke:#1d1d1b;stroke-linecap:round;stroke-miterlimit:10;stroke-width:4px;}</style><clipPath id="clip-path"><rect class="cls-1" width="566.93" height="566.93"/></clipPath></defs><g class="cls-2"><g class="cls-2"><path class="cls-3" d="M336.6,127.56l-125,23.89a5,5,0,0,1-2,0L90,128.56a5.27,5.27,0,0,0-6.25,5.17V392.27A5.27,5.27,0,0,0,88,397.43L209.68,420.7a5.44,5.44,0,0,0,2,0l125-23.9a5.49,5.49,0,0,1,2,0l119.7,22.89a5.25,5.25,0,0,0,6.24-5.16V156a5.25,5.25,0,0,0-4.27-5.16L338.58,127.56A5.07,5.07,0,0,0,336.6,127.56Z"/><path class="cls-4" d="M93.07,406,219,430a5.07,5.07,0,0,0,2,0l125-23.89a5.07,5.07,0,0,1,2,0L467.61,429a5.27,5.27,0,0,0,6.25-5.17V161"/><path class="cls-4" d="M102.41,415.29l125.94,24.08a5,5,0,0,0,2,0l125-23.89a5,5,0,0,1,2,0L477,438.37a5.27,5.27,0,0,0,6.25-5.17V170.32"/><line class="cls-4" x1="209.68" y1="151.45" x2="209.68" y2="418.03"/><line class="cls-4" x1="336.6" y1="127.56" x2="336.6" y2="396.8"/><line class="cls-4" x1="182.94" y1="184.18" x2="110.47" y2="170.32"/><line class="cls-4" x1="182.94" y1="199.98" x2="110.47" y2="186.12"/><line class="cls-4" x1="182.94" y1="215.79" x2="110.47" y2="201.93"/><line class="cls-4" x1="182.94" y1="326.42" x2="110.47" y2="312.56"/><line class="cls-4" x1="182.94" y1="342.23" x2="110.47" y2="328.37"/><line class="cls-4" x1="182.94" y1="358.03" x2="110.47" y2="344.17"/><line class="cls-4" x1="182.94" y1="373.84" x2="110.47" y2="359.98"/><line class="cls-4" x1="441.61" y1="263.2" x2="369.13" y2="249.34"/><line class="cls-4" x1="441.61" y1="279.01" x2="369.13" y2="265.15"/><line class="cls-4" x1="441.61" y1="294.81" x2="369.13" y2="280.95"/><line class="cls-4" x1="441.61" y1="310.62" x2="369.13" y2="296.76"/><line class="cls-4" x1="310.37" y1="280.95" x2="237.89" y2="294.81"/><line class="cls-4" x1="310.37" y1="265.15" x2="237.89" y2="279.01"/><line class="cls-4" x1="310.37" y1="249.34" x2="237.89" y2="263.2"/><line class="cls-4" x1="310.37" y1="233.54" x2="237.89" y2="247.4"/><line class="cls-4" x1="310.37" y1="217.73" x2="237.89" y2="231.59"/><line class="cls-4" x1="310.37" y1="201.93" x2="237.89" y2="215.79"/><line class="cls-4" x1="310.37" y1="186.12" x2="237.89" y2="199.98"/><line class="cls-4" x1="310.37" y1="170.32" x2="237.89" y2="184.18"/><line class="cls-4" x1="441.61" y1="326.42" x2="369.13" y2="312.56"/><line class="cls-4" x1="441.61" y1="342.23" x2="369.13" y2="328.37"/><line class="cls-4" x1="441.61" y1="358.03" x2="369.13" y2="344.17"/><line class="cls-4" x1="441.61" y1="373.84" x2="369.13" y2="359.98"/><path class="cls-4" d="M301.33,342c0-15.13-12.18-25.3-27.2-22.73s-27.2,16.84-27.2,31.86,12.18,25.2,27.2,22.73S301.33,357.1,301.33,342Z"/><path class="cls-4" d="M176.75,293.63l-62-11.87a5.22,5.22,0,0,1-4.24-5.12v-36.8a5.22,5.22,0,0,1,6.2-5.12l62.05,11.87a5.21,5.21,0,0,1,4.23,5.12v36.8A5.22,5.22,0,0,1,176.75,293.63Z"/><path class="cls-4" d="M435.42,230.41l-62.05-11.87a5.22,5.22,0,0,1-4.24-5.12v-36.8a5.22,5.22,0,0,1,6.2-5.12l62.05,11.87a5.21,5.21,0,0,1,4.23,5.12v36.8A5.22,5.22,0,0,1,435.42,230.41Z"/></g></g></svg>