<svg id="Слой_1" data-name="Слой 1" xmlns="http://www.w3.org/2000/svg" xmlns:xlink="http://www.w3.org/1999/xlink" viewBox="0 0 566.93 566.93"><defs><style>.cls-1,.cls-4,.cls-5{fill:none;}.cls-2{clip-path:url(#clip-path);}.cls-3{fill:#fff;}.cls-4,.cls-5{stroke:#1d1d1b;stroke-linecap:round;stroke-width:4px;}.cls-4{stroke-miterlimit:10;}.cls-5{stroke-linejoin:round;}.cls-6{fill:#1d1d1b;}</style><clipPath id="clip-path"><rect class="cls-1" width="566.93" height="566.93"/></clipPath></defs><g class="cls-2"><g class="cls-2"><path class="cls-3" d="M372.48,409.81H174.36a5.82,5.82,0,0,1-5.82-5.82V118a5.82,5.82,0,0,1,5.82-5.83H372.48A5.83,5.83,0,0,1,378.3,118V404a5.83,5.83,0,0,1-5.82,5.82"/><rect class="cls-4" x="168.54" y="112.17" width="209.76" height="297.64" rx="5.82"/><path class="cls-4" d="M388.35,122.22V414a5.83,5.83,0,0,1-5.83,5.83H178.58"/><path class="cls-4" d="M398.39,132.27V424.08a5.81,5.81,0,0,1-5.82,5.82H188.63"/><rect class="cls-3" x="188.38" y="132.02" width="170.08" height="257.95"/><rect class="cls-5" x="188.38" y="132.02" width="170.08" height="257.95"/><line class="cls-4" x1="221.93" y1="196.61" x2="324.9" y2="196.61"/><line class="cls-4" x1="221.93" y1="214.99" x2="324.9" y2="214.99"/><line class="cls-4" x1="233.42" y1="264.95" x2="313.41" y2="264.95"/><line class="cls-4" x1="233.42" y1="283.34" x2="313.41" y2="283.34"/><path class="cls-3" d="M303.7,454.76a8,8,0,0,1-8.06-8.06V362a8.06,8.06,0,0,1,8.05-8.05H346A8.06,8.06,0,0,1,354,362V446.7a8,8,0,0,1-13.3,6.11l-15.9-13.64-15.89,13.64a8,8,0,0,1-5.24,1.95v0Z"/><path class="cls-3" d="M344.89,448l-19-16.28a1.68,1.68,0,0,0-2.17,0l-19,16.28A1.66,1.66,0,0,1,302,446.7V362a1.66,1.66,0,0,1,1.66-1.66H346a1.66,1.66,0,0,1,1.67,1.66V446.7a1.66,1.66,0,0,1-2.75,1.26"/><path class="cls-5" d="M344.89,448l-19-16.28a1.68,1.68,0,0,0-2.17,0l-19,16.28A1.66,1.66,0,0,1,302,446.7V362a1.66,1.66,0,0,1,1.66-1.66H346a1.66,1.66,0,0,1,1.67,1.66V446.7A1.66,1.66,0,0,1,344.89,448Z"/><path class="cls-3" d="M335.44,418.54a14,14,0,0,1-9.07-3.31,2.29,2.29,0,0,0-2.93,0,14,14,0,0,1-9.07,3.31,14.16,14.16,0,0,1-13.77-10.73,2.29,2.29,0,0,0-2.21-1.73h-.17l-1,0a14.17,14.17,0,0,1-13.11-19.46,2.29,2.29,0,0,0-.91-2.79,14.17,14.17,0,0,1,0-24,2.28,2.28,0,0,0,.91-2.79,14.17,14.17,0,0,1,13.11-19.46c.34,0,.67,0,1,0h.16a2.29,2.29,0,0,0,2.21-1.73,14.16,14.16,0,0,1,13.77-10.73,14,14,0,0,1,9.07,3.31,2.29,2.29,0,0,0,2.93,0,14,14,0,0,1,9.07-3.31,14.17,14.17,0,0,1,13.77,10.73,2.27,2.27,0,0,0,2.21,1.73h.16c.33,0,.67,0,1,0a14.17,14.17,0,0,1,13.12,19.46,2.27,2.27,0,0,0,.9,2.79,14.17,14.17,0,0,1,0,24,2.27,2.27,0,0,0-.9,2.79,14.17,14.17,0,0,1-13.12,19.46q-.49,0-1,0h-.17a2.27,2.27,0,0,0-2.21,1.73,14.17,14.17,0,0,1-13.77,10.73Z"/><path class="cls-3" d="M330.18,333.05h0a8.23,8.23,0,0,1,13.27,4.3,8.2,8.2,0,0,0,8.54,6.21,8.23,8.23,0,0,1,8.2,11.28,8.23,8.23,0,0,0,3.26,10.05,8.22,8.22,0,0,1,0,13.94,8.23,8.23,0,0,0-3.26,10.05,8.23,8.23,0,0,1-8.2,11.28,8.21,8.21,0,0,0-8.54,6.21h0a8.24,8.24,0,0,1-13.27,4.31,8.22,8.22,0,0,0-10.56,0,8.23,8.23,0,0,1-13.26-4.31h0a8.23,8.23,0,0,0-8.54-6.21,8.23,8.23,0,0,1-8.2-11.28,8.24,8.24,0,0,0-3.26-10.05,8.22,8.22,0,0,1,0-13.94,8.24,8.24,0,0,0,3.26-10.05,8.23,8.23,0,0,1,8.2-11.28,8.22,8.22,0,0,0,8.54-6.21,8.22,8.22,0,0,1,13.26-4.3,8.24,8.24,0,0,0,10.56,0"/><path class="cls-5" d="M330.18,333.05h0a8.23,8.23,0,0,1,13.27,4.3,8.2,8.2,0,0,0,8.54,6.21,8.23,8.23,0,0,1,8.2,11.28,8.23,8.23,0,0,0,3.26,10.05,8.22,8.22,0,0,1,0,13.94,8.23,8.23,0,0,0-3.26,10.05,8.23,8.23,0,0,1-8.2,11.28,8.21,8.21,0,0,0-8.54,6.21h0a8.24,8.24,0,0,1-13.27,4.31,8.22,8.22,0,0,0-10.56,0,8.23,8.23,0,0,1-13.26-4.31h0a8.23,8.23,0,0,0-8.54-6.21,8.23,8.23,0,0,1-8.2-11.28,8.24,8.24,0,0,0-3.26-10.05,8.22,8.22,0,0,1,0-13.94,8.24,8.24,0,0,0,3.26-10.05,8.23,8.23,0,0,1,8.2-11.28,8.22,8.22,0,0,0,8.54-6.21,8.22,8.22,0,0,1,13.26-4.3A8.24,8.24,0,0,0,330.18,333.05Z"/><path class="cls-6" d="M352.65,371.86A27.75,27.75,0,1,0,324.9,399.6a27.75,27.75,0,0,0,27.75-27.74"/></g></g></svg>