<svg id="Слой_1" data-name="Слой 1" xmlns="http://www.w3.org/2000/svg" xmlns:xlink="http://www.w3.org/1999/xlink" viewBox="0 0 566.93 566.93"><defs><style>.cls-1,.cls-4{fill:none;}.cls-2{clip-path:url(#clip-path);}.cls-3{fill:#fff;}.cls-3,.cls-4{stroke:#1d1d1b;stroke-linecap:round;stroke-miterlimit:10;stroke-width:4px;}</style><clipPath id="clip-path"><rect class="cls-1" width="566.93" height="566.93"/></clipPath></defs><g class="cls-2"><g class="cls-2"><path class="cls-3" d="M207.06,408.17V133.6a5.45,5.45,0,0,0-10.89,0V408.17"/><path class="cls-3" d="M201.61,408.17c-15.46,0-28.48,9.59-32.32,22.63a6.28,6.28,0,0,0,6.08,8h52.48a6.28,6.28,0,0,0,6.09-8C230.1,417.76,217.08,408.17,201.61,408.17Z"/><path class="cls-3" d="M371,243.83H207.06V141H371a5.27,5.27,0,0,1,5.26,5.27v92.31A5.26,5.26,0,0,1,371,243.83Z"/><path class="cls-4" d="M387.06,154.93v93.45a6.28,6.28,0,0,1-6.28,6.28H217.88"/><path class="cls-4" d="M397.89,165.75V259.2a6.28,6.28,0,0,1-6.28,6.28H228.71"/></g></g></svg>