<svg id="Слой_1" data-name="Слой 1" xmlns="http://www.w3.org/2000/svg" xmlns:xlink="http://www.w3.org/1999/xlink" viewBox="0 0 566.93 566.93"><defs><style>.cls-1,.cls-6{fill:none;}.cls-2{clip-path:url(#clip-path);}.cls-3,.cls-5{fill:#fff;}.cls-3,.cls-6{stroke:#1d1d1b;stroke-linecap:round;stroke-miterlimit:10;stroke-width:4px;}.cls-4{fill:#1d1d1b;}</style><clipPath id="clip-path"><rect class="cls-1" width="566.93" height="566.93"/></clipPath></defs><g class="cls-2"><g class="cls-2"><path class="cls-3" d="M364.77,376.18,173.36,427.72a5.77,5.77,0,0,1-7.07-4.07L91.91,147.39A5.76,5.76,0,0,1,96,140.32l191.4-51.54a5.77,5.77,0,0,1,7.08,4.07l74.38,276.26A5.76,5.76,0,0,1,364.77,376.18Z"/><path class="cls-4" d="M225.84,149.86a92.75,92.75,0,0,0-21.32-38.77L96,140.32a5.76,5.76,0,0,0-4.07,7.07l32,119A93.13,93.13,0,0,0,225.84,149.86"/><path class="cls-4" d="M336.32,376.46A60.46,60.46,0,0,0,219.55,407.9a62.52,62.52,0,0,0,2.27,6.77l115.94-31.22a62.42,62.42,0,0,0-1.44-7"/><path class="cls-5" d="M469.27,478.35H271.41a6,6,0,0,1-6-6V186.66a6,6,0,0,1,6-5.95H469.27a6,6,0,0,1,6,5.95V472.4a6,6,0,0,1-6,6"/><rect class="cls-6" x="265.46" y="180.71" width="209.76" height="297.64" rx="5.95"/><line class="cls-6" x1="302.24" y1="240.9" x2="438.44" y2="240.9"/><line class="cls-6" x1="302.24" y1="259.29" x2="438.44" y2="259.29"/><line class="cls-6" x1="336.29" y1="339.97" x2="438.44" y2="339.97"/><line class="cls-6" x1="336.29" y1="358.35" x2="438.44" y2="358.35"/><line class="cls-6" x1="302.24" y1="427.8" x2="438.44" y2="427.8"/><line class="cls-6" x1="302.24" y1="446.18" x2="438.44" y2="446.18"/><line class="cls-6" x1="302.24" y1="280.9" x2="370.34" y2="280.9"/></g></g></svg>