<svg id="Слой_1" data-name="Слой 1" xmlns="http://www.w3.org/2000/svg" xmlns:xlink="http://www.w3.org/1999/xlink" viewBox="0 0 566.93 566.93"><defs><style>.cls-1,.cls-4{fill:none;}.cls-2{clip-path:url(#clip-path);}.cls-3{fill:#fff;}.cls-3,.cls-4{stroke:#1d1d1b;stroke-linecap:round;stroke-miterlimit:10;stroke-width:4px;}.cls-5{fill:#1d1d1b;}</style><clipPath id="clip-path"><rect class="cls-1" width="566.93" height="566.93"/></clipPath></defs><g class="cls-2"><g class="cls-2"><rect class="cls-3" x="168.67" y="124.73" width="209.76" height="297.64" rx="5.66"/><path class="cls-4" d="M388.35,138.09V426.48a5.8,5.8,0,0,1-5.8,5.8H182.25"/><path class="cls-4" d="M398.26,148.11V436.4a5.8,5.8,0,0,1-5.79,5.8H191.89"/><path class="cls-5" d="M168.67,130.39V271.71a84.75,84.75,0,0,0,83.14-147H174.32a5.65,5.65,0,0,0-5.65,5.66"/></g></g><line class="cls-4" x1="291.73" y1="252.01" x2="352.61" y2="252.01"/><line class="cls-4" x1="291.73" y1="273.65" x2="352.61" y2="273.65"/><line class="cls-4" x1="191.89" y1="308.09" x2="352.61" y2="308.09"/><line class="cls-4" x1="191.89" y1="329.73" x2="352.61" y2="329.73"/><line class="cls-4" x1="191.89" y1="351.37" x2="352.61" y2="351.37"/><line class="cls-4" x1="191.89" y1="373.01" x2="252.77" y2="373.01"/></svg>