<svg id="Слой_1" data-name="Слой 1" xmlns="http://www.w3.org/2000/svg" xmlns:xlink="http://www.w3.org/1999/xlink" viewBox="0 0 566.93 566.93"><defs><style>.cls-1,.cls-3{fill:none;}.cls-2{clip-path:url(#clip-path);}.cls-3,.cls-4{stroke:#1d1d1b;stroke-linecap:round;stroke-miterlimit:10;stroke-width:4px;}.cls-4,.cls-5{fill:#fff;}.cls-6{fill:#1d1d1b;}</style><clipPath id="clip-path"><rect class="cls-1" width="566.93" height="566.93"/></clipPath></defs><g class="cls-2"><g class="cls-2"><path class="cls-3" d="M371.26,159.88V447.23a5.9,5.9,0,0,1-5.91,5.9h-131"/><path class="cls-3" d="M381.18,169.8V457.14a5.91,5.91,0,0,1-5.91,5.91H244.71"/><rect class="cls-4" x="221.44" y="146.52" width="139.86" height="296.68" rx="5.8"/><line class="cls-3" x1="323.65" y1="399.1" x2="226.32" y2="443.24"/><path class="cls-5" d="M319.82,400.56H191.55a5.8,5.8,0,0,1-5.8-5.8V109.68a5.8,5.8,0,0,1,5.8-5.8H319.82a5.79,5.79,0,0,1,5.79,5.8V394.76a5.8,5.8,0,0,1-5.79,5.8"/><rect class="cls-3" x="185.75" y="103.88" width="139.86" height="296.68" rx="5.8"/><line class="cls-3" x1="212.24" y1="221.36" x2="299.12" y2="221.36"/><line class="cls-3" x1="212.24" y1="243" x2="299.12" y2="243"/><line class="cls-3" x1="212.24" y1="286.28" x2="299.12" y2="286.28"/><line class="cls-3" x1="212.24" y1="307.92" x2="299.12" y2="307.92"/><line class="cls-3" x1="212.24" y1="329.56" x2="299.12" y2="329.56"/><line class="cls-3" x1="212.24" y1="351.2" x2="245.15" y2="351.2"/><path class="cls-6" d="M185.75,109.68v79.26a67.94,67.94,0,0,0,90.39-85.06H191.55a5.8,5.8,0,0,0-5.8,5.8"/></g></g></svg>