<svg id="Слой_1" data-name="Слой 1" xmlns="http://www.w3.org/2000/svg" xmlns:xlink="http://www.w3.org/1999/xlink" viewBox="0 0 566.93 566.93"><defs><style>.cls-1,.cls-5{fill:none;}.cls-2{clip-path:url(#clip-path);}.cls-3,.cls-4{fill:#fff;}.cls-3,.cls-5{stroke:#1d1d1b;stroke-linecap:round;stroke-miterlimit:10;stroke-width:4px;}</style><clipPath id="clip-path"><rect class="cls-1" width="566.93" height="566.93"/></clipPath></defs><g class="cls-2"><g class="cls-2"><path class="cls-3" d="M377.21,137.91l19.4,19.56a5.68,5.68,0,0,1,1.65,4v286a5.71,5.71,0,0,1-5.7,5.71H194.27a5.78,5.78,0,0,1-4.06-1.68l-19.94-19.88"/><path class="cls-4" d="M265.78,433.39c55.07,0,90.2-18.68,99.9-24.57a5.69,5.69,0,0,0,2.74-4.88V119.44a5.72,5.72,0,0,0-8.39-5.07c-14.42,7.63-47,21.38-94.25,21.38"/></g></g><path class="cls-5" d="M388.35,149.11V437.6a5.71,5.71,0,0,1-5.71,5.71H182.25"/><rect class="cls-3" x="168.67" y="135.75" width="209.76" height="297.64" rx="5.66"/><line class="cls-5" x1="209.1" y1="379.82" x2="249.7" y2="379.82"/><path class="cls-3" d="M265.78,433.39c55.07,0,90.2-18.68,99.9-24.57a5.69,5.69,0,0,0,2.74-4.88V119.44a5.72,5.72,0,0,0-8.39-5.07c-14.42,7.63-47,21.38-94.25,21.38"/><path class="cls-5" d="M209.1,201.35h56.68a227.94,227.94,0,0,0,43.9-4.17,203.49,203.49,0,0,0,23.71-6.11"/><path class="cls-5" d="M209.1,219.73h56.68a232.55,232.55,0,0,0,32.19-2.2c.73-.11,6.75-1,12.95-2.26"/><polyline class="cls-5" points="209.1 238.11 265.1 238.11 265.78 238.11"/><line class="cls-5" x1="182.25" y1="136.98" x2="182.25" y2="433.39"/></svg>