<svg id="Слой_1" data-name="Слой 1" xmlns="http://www.w3.org/2000/svg" xmlns:xlink="http://www.w3.org/1999/xlink" viewBox="0 0 566.93 566.93"><defs><style>.cls-1,.cls-5{fill:none;}.cls-2{clip-path:url(#clip-path);}.cls-3{fill:#fff;}.cls-3,.cls-5,.cls-6{stroke:#1d1d1b;stroke-linecap:round;stroke-miterlimit:10;stroke-width:4px;}.cls-4,.cls-6{fill:#1d1d1b;}</style><clipPath id="clip-path"><rect class="cls-1" width="566.93" height="566.93"/></clipPath></defs><g class="cls-2"><g class="cls-2"><path class="cls-3" d="M283.46,414.59H65.77a6.15,6.15,0,0,1-6.15-6.15v-228a6.18,6.18,0,0,1,1.8-4.35l22.37-22.37"/><path class="cls-3" d="M283.46,414.59h217.7a6.15,6.15,0,0,0,6.15-6.15v-228a6.18,6.18,0,0,0-1.8-4.35l-22.37-22.37"/><path class="cls-4" d="M165.61,296.66l-51.55-10.34a6.18,6.18,0,0,1-5-6.05v-81.9a6.17,6.17,0,0,1,7.39-6.05L168,202.65a6.18,6.18,0,0,1,5,6.06V290.6a6.18,6.18,0,0,1-7.39,6.06"/></g></g><path class="cls-5" d="M70.36,167.18V390a6.14,6.14,0,0,0,5.6,6.12l207.5,18.51"/><path class="cls-5" d="M496.57,167.18V390a6.14,6.14,0,0,1-5.6,6.12L283.46,414.59"/><path class="cls-3" d="M477.66,152.48l-194.2,39-194.19-39a6.82,6.82,0,0,0-8.17,6.69V368.4a6.82,6.82,0,0,0,5.48,6.69l196.88,39.5,196.89-39.5a6.82,6.82,0,0,0,5.48-6.69V159.17A6.82,6.82,0,0,0,477.66,152.48Z"/><line class="cls-5" x1="313.83" y1="335.57" x2="458.69" y2="306.51"/><line class="cls-5" x1="313.83" y1="378.71" x2="458.69" y2="349.64"/><line class="cls-5" x1="313.82" y1="356.58" x2="458.68" y2="327.51"/><path class="cls-5" d="M458.69,199l-65.32,13.1m0,43.13,65.32-13.1m-65.32-9.34,65.32-13.1"/><line class="cls-5" x1="253.97" y1="335.57" x2="109.1" y2="306.51"/><line class="cls-5" x1="253.97" y1="378.71" x2="109.1" y2="349.64"/><line class="cls-5" x1="253.98" y1="356.58" x2="109.11" y2="327.51"/><path class="cls-5" d="M254,228.07,188.65,215m0,43.14L254,271.2m-65.32-35.55L254,248.76"/><path class="cls-5" d="M321.27,312.93l51.46-10.28a6.23,6.23,0,0,0,5-6.1V209.48a6.39,6.39,0,0,0-7.64-6.26L319,213.44a6.38,6.38,0,0,0-5.13,6.26v87.13A6.22,6.22,0,0,0,321.27,312.93Z"/><path class="cls-6" d="M165.61,296.66l-51.55-10.34a6.18,6.18,0,0,1-5-6.05v-81.9a6.17,6.17,0,0,1,7.39-6.05L168,202.65a6.18,6.18,0,0,1,5,6.06V290.6A6.18,6.18,0,0,1,165.61,296.66Z"/><line class="cls-5" x1="283.46" y1="191.44" x2="283.46" y2="414.59"/></svg>