<?xml version="1.0" standalone="no"?>
<!DOCTYPE svg PUBLIC "-//W3C//DTD SVG 20010904//EN"
 "http://www.w3.org/TR/2001/REC-SVG-20010904/DTD/svg10.dtd">
<svg version="1.0" xmlns="http://www.w3.org/2000/svg"
 width="431.000000pt" height="431.000000pt" viewBox="0 0 431.000000 431.000000"
 preserveAspectRatio="xMidYMid meet">

<g transform="translate(0.000000,431.000000) scale(0.100000,-0.100000)"
fill="#000000" stroke="none">
<path d="M2176 3983 c-1 -1 -110 -4 -243 -6 -271 -5 -277 -7 -337 -80 l-31
-39 1 -156 c3 -461 20 -1081 29 -1091 16 -15 104 -5 132 15 l28 21 1 159 c1
171 5 192 53 247 55 62 81 69 293 72 104 2 192 5 195 8 5 6 8 58 5 107 l-2 25
-245 -2 c-201 -2 -251 -6 -276 -19 -17 -8 -33 -14 -35 -12 -7 7 -23 528 -17
544 3 8 13 19 23 24 10 5 194 12 409 16 l391 7 0 -44 c0 -24 3 -154 7 -288 l5
-244 -58 5 c-33 3 -63 4 -69 2 -8 -3 -11 -51 -6 -111 1 -10 25 -13 89 -12 124
2 217 12 215 24 -1 6 -4 139 -8 295 -8 386 -12 419 -58 468 -48 52 -69 57
-285 62 -112 3 -205 4 -206 3z"/>
<path d="M2262 3728 c-18 -18 -15 -38 6 -39 9 0 45 -3 80 -5 52 -4 63 -2 69
12 4 11 -1 22 -12 30 -23 17 -127 18 -143 2z"/>
<path d="M3000 3718 c-103 -52 -128 -179 -54 -268 34 -40 69 -57 130 -65 43
-6 55 -3 96 24 123 79 116 241 -14 305 -64 32 -101 33 -158 4z"/>
<path d="M1820 3660 c-11 -26 -10 -33 5 -50 17 -18 31 -20 169 -20 83 0 156 4
163 8 21 13 26 58 8 76 -14 13 -41 16 -175 16 l-158 0 -12 -30z"/>
<path d="M1405 3618 c-52 -37 -179 -170 -227 -238 -119 -170 -199 -382 -214
-572 l-5 -57 83 29 c88 31 108 48 108 91 0 50 51 202 97 292 44 86 125 197
177 246 25 22 26 28 26 127 0 57 -3 104 -7 104 -5 0 -21 -10 -38 -22z"/>
<path d="M2398 3470 c-1 -27 -2 -58 -2 -67 -1 -12 8 -19 27 -21 26 -3 27 -2
27 45 0 67 -9 93 -31 93 -16 0 -19 -8 -21 -50z"/>
<path d="M1878 3472 c-25 -2 -42 -10 -49 -23 -11 -21 -3 -60 15 -71 12 -8 393
-1 407 8 17 10 10 73 -8 82 -17 9 -282 11 -365 4z"/>
<path d="M3152 3232 c-6 -2 -14 -30 -18 -62 -6 -54 -8 -58 -36 -64 -17 -3 -43
-6 -59 -6 -25 0 -29 -4 -30 -27 -3 -61 9 -76 50 -69 39 6 71 -10 71 -37 0 -12
13 -38 30 -57 l30 -35 20 23 c11 13 24 41 30 63 10 37 12 39 53 39 55 0 66 9
74 53 5 33 3 38 -21 47 -15 5 -45 10 -67 10 -33 0 -39 3 -39 21 0 12 -5 39
-11 59 -9 30 -17 39 -39 42 -15 2 -32 2 -38 0z"/>
<path d="M2397 2984 c-1 -1 -97 -4 -213 -8 -116 -3 -219 -8 -228 -12 -24 -9
-27 -36 -24 -189 l3 -140 27 -13 c31 -15 109 -29 191 -35 32 -3 60 -6 62 -8 6
-7 14 -209 15 -374 1 -88 4 -190 7 -227 l6 -68 36 0 37 0 -3 178 c-1 97 -5
202 -8 234 -3 31 -2 59 3 62 5 3 123 8 263 11 140 3 261 8 271 11 19 6 28 97
16 179 -3 28 -7 120 -8 205 -1 85 -5 164 -8 176 -7 20 -12 21 -225 20 -120 -1
-219 -2 -220 -2z"/>
<path d="M1345 2814 c-22 -8 -50 -15 -62 -16 -13 -2 -23 -7 -23 -12 0 -5 -3
-7 -6 -3 -3 3 -26 -3 -50 -13 -24 -11 -44 -17 -44 -14 0 3 -12 -2 -27 -10 -16
-8 -67 -32 -114 -54 -80 -37 -184 -102 -201 -127 -5 -5 -12 -25 -18 -44 -27
-96 91 -183 316 -234 l59 -14 3 -183 c1 -101 5 -186 8 -189 3 -3 119 -5 257
-3 193 2 254 6 262 16 6 8 9 35 7 60 l-4 47 -214 -2 c-118 -1 -217 1 -221 5
-11 11 -14 84 -4 90 8 5 143 11 379 16 20 0 22 5 22 50 0 33 -4 50 -12 51 -7
0 -29 2 -48 3 -19 1 -72 0 -118 -4 -46 -3 -85 -3 -88 1 -2 4 -4 36 -5 71 l-2
65 -81 23 c-181 50 -266 85 -266 110 0 24 118 80 278 130 l72 24 0 88 c0 48
-3 88 -7 87 -5 0 -26 -7 -48 -15z"/>
<path d="M3371 2630 c-69 -51 -313 -145 -333 -129 -2 1 -14 -3 -27 -10 -22
-12 -23 -16 -19 -112 4 -94 3 -99 -17 -99 -568 -10 -529 -8 -547 -31 -20 -23
-24 -129 -11 -261 l6 -68 43 0 43 0 1 68 c1 101 1 104 -6 140 l-6 32 48 0 c27
1 114 3 194 6 80 3 199 7 265 8 66 2 132 4 147 5 27 1 27 1 30 87 l3 87 50 14
c229 63 315 116 315 194 0 39 -22 71 -67 97 -35 19 -54 14 -112 -28z"/>
<path d="M1696 2468 c-119 -6 -152 -11 -167 -24 -21 -19 -25 -59 -8 -70 6 -4
87 -6 180 -5 l169 2 2 -103 c1 -57 2 -112 3 -123 1 -11 3 -71 4 -132 l1 -113
56 0 55 0 -6 243 c-4 133 -8 262 -8 285 l-2 44 -65 2 c-36 0 -132 -2 -214 -6z"/>
<path d="M3229 2076 c-2 -3 -133 -7 -289 -10 -157 -2 -293 -5 -302 -5 -15 -1
-18 -11 -18 -67 l0 -66 273 6 c149 3 293 5 318 5 l46 1 6 40 c8 59 -13 117
-34 96z"/>
<path d="M3335 1760 c-8 -14 12 -897 21 -911 3 -5 25 -9 50 -9 l45 0 -5 205
c-4 187 -3 205 12 206 31 1 96 44 119 78 32 47 46 105 44 180 -2 104 -51 190
-132 231 -39 20 -145 34 -154 20z"/>
<path d="M2797 1752 c-19 -4 -19 -42 -2 -707 2 -82 4 -162 5 -177 0 -23 5 -28
24 -28 13 0 34 8 47 19 21 17 23 27 26 142 1 68 3 132 3 141 1 10 10 23 21 28
16 9 21 7 29 -15 6 -15 10 -30 10 -35 0 -5 6 -29 14 -52 7 -24 23 -75 35 -113
27 -91 44 -115 82 -115 16 0 29 3 29 6 0 9 -41 182 -67 284 -38 147 -39 155
-10 198 97 142 38 380 -101 410 -60 14 -122 19 -145 14z"/>
<path d="M3159 1753 c-6 -47 12 -844 20 -878 6 -27 12 -30 49 -33 l42 -3 -5
218 c-3 120 -7 292 -10 383 -2 91 -4 200 -4 243 l-1 77 -45 0 c-25 0 -45 -3
-46 -7z"/>
<path d="M2464 1735 c-4 -13 -7 -56 -6 -77 2 -15 12 -18 52 -18 33 0 50 -4 51
-12 1 -7 2 -28 4 -47 3 -39 27 -66 49 -58 19 7 36 47 36 83 0 18 5 24 23 24
34 0 45 12 47 50 4 70 12 66 -126 65 -75 0 -128 -4 -130 -10z"/>
<path d="M2055 1730 l-60 -5 -3 -40 c-4 -45 14 -65 59 -65 18 0 28 -6 32 -20
3 -10 6 -120 7 -242 3 -411 6 -513 14 -526 5 -9 25 -12 60 -10 l51 3 -2 230
c-1 127 -5 305 -9 398 l-6 167 23 0 c60 0 69 9 69 66 l0 53 -87 -2 c-49 -1
-115 -4 -148 -7z"/>
<path d="M1837 1698 c-4 -18 -4 -111 -2 -205 2 -95 0 -173 -4 -173 -11 0 -21
25 -21 51 0 11 -4 27 -9 37 -6 9 -26 69 -46 132 -49 152 -54 160 -111 160
l-46 0 7 -164 c5 -122 4 -168 -5 -183 -10 -15 -10 -39 0 -114 7 -52 15 -165
17 -251 l5 -158 48 0 49 0 -5 190 c-3 115 -1 190 5 190 5 0 12 -6 14 -12 3 -8
6 -6 6 5 1 19 21 24 21 5 0 -7 9 -44 21 -83 11 -38 27 -92 35 -120 31 -109 39
-128 64 -155 20 -22 33 -27 50 -23 l23 6 -7 191 c-3 105 -9 304 -13 441 -4
164 -10 253 -17 257 -6 4 -25 8 -42 8 -28 0 -32 -4 -37 -32z"/>
<path d="M1456 1711 l-29 -6 4 -130 c2 -71 4 -255 4 -407 0 -253 -2 -279 -18
-295 -15 -16 -19 -16 -27 -3 -5 8 -7 25 -3 38 3 13 1 33 -5 45 -5 12 -19 63
-30 112 -41 179 -42 197 -12 230 10 11 22 47 28 80 19 116 -17 224 -93 277
-43 30 -54 34 -160 49 -71 11 -248 9 -259 -2 -11 -11 -7 -368 4 -389 12 -22
51 -36 75 -26 12 4 15 29 16 128 1 68 0 138 -1 156 -1 26 2 32 19 32 31 0 71
-41 82 -85 15 -62 12 -158 -7 -205 -15 -38 -25 -46 -89 -75 -99 -45 -100 -48
-95 -288 2 -113 3 -118 25 -127 13 -5 35 -6 50 -2 l27 8 0 135 c-1 75 -2 142
-4 150 -2 8 12 17 37 24 79 21 126 58 159 123 13 26 17 61 17 150 0 64 -1 125
-3 136 -5 32 32 28 69 -9 28 -28 33 -40 33 -81 0 -46 -6 -61 -53 -145 -14 -24
-16 -37 -9 -53 5 -11 15 -45 21 -73 6 -29 16 -74 21 -100 29 -137 52 -219 65
-240 17 -25 48 -29 104 -13 24 7 47 6 73 -2 21 -6 41 -9 44 -6 8 8 7 147 -1
368 -4 107 -9 260 -10 340 -2 80 -3 155 -4 168 -1 23 -11 25 -65 13z"/>
<path d="M2495 630 c-10 -16 -7 -222 4 -233 17 -17 31 4 31 47 l0 43 43 6 c49
7 67 -8 67 -59 0 -32 14 -52 24 -36 5 8 10 155 7 210 -1 12 -7 22 -15 22 -11
0 -16 -14 -18 -47 l-3 -48 -51 -3 -52 -3 -7 51 c-7 50 -18 69 -30 50z"/>
<path d="M3113 625 c-12 -8 -24 -28 -28 -45 -5 -23 -1 -35 19 -57 33 -36 34
-61 1 -65 -23 -3 -24 -5 -12 -28 25 -51 111 -33 117 25 4 38 0 45 -40 70 -55
34 -54 94 1 65 28 -16 51 3 29 24 -24 22 -64 27 -87 11z"/>
<path d="M3308 601 c-1 -20 -2 -73 0 -117 l3 -82 35 -4 c62 -7 104 2 104 23 0
15 -7 19 -34 19 -51 0 -66 9 -66 40 0 25 2 27 36 23 30 -3 35 -1 32 14 -2 11
-15 20 -33 23 -24 4 -31 11 -33 34 -3 27 -3 28 36 21 28 -4 42 -2 51 9 17 20
2 27 -68 30 l-59 2 -4 -35z"/>
<path d="M2129 623 c-39 -6 -59 -34 -66 -91 -11 -95 18 -142 88 -142 66 0 79
12 79 75 0 42 -3 55 -15 55 -18 0 -20 41 -3 58 9 9 7 16 -7 32 -18 20 -25 21
-76 13z"/>
<path d="M2826 608 c-10 -38 -7 -146 5 -172 16 -35 70 -52 110 -36 41 17 50
40 51 123 0 102 0 107 -17 107 -11 0 -15 -11 -16 -37 -3 -113 -6 -134 -20
-148 -33 -34 -86 4 -79 56 2 8 2 40 1 72 -1 41 -5 57 -15 57 -7 0 -16 -10 -20
-22z"/>
<path d="M941 507 c1 -120 4 -137 24 -137 16 0 29 35 20 50 -3 6 -4 18 -1 28
5 13 15 16 49 14 86 -7 130 73 71 129 -21 20 -37 24 -95 26 l-70 2 2 -112z"/>
<path d="M1248 613 c-19 -5 -20 -9 -20 -142 0 -46 5 -88 10 -93 18 -18 33 3
30 40 -3 35 -1 37 29 40 29 3 34 -1 47 -33 15 -34 40 -54 53 -41 4 4 -1 20
-10 35 -19 32 -22 61 -7 61 5 0 16 11 25 23 12 19 13 30 4 56 -6 17 -19 35
-28 40 -21 11 -111 21 -133 14z"/>
<path d="M1518 612 c-15 -3 -16 -16 -13 -114 3 -61 7 -114 10 -116 23 -23 38
92 26 188 -5 36 -10 45 -23 42z"/>
<path d="M1658 553 c-7 -92 3 -168 22 -168 12 0 15 18 15 95 1 113 -3 140 -20
140 -8 0 -14 -23 -17 -67z"/>
<path d="M1809 616 c-3 -4 -3 -176 0 -228 1 -5 7 -8 14 -8 6 0 19 21 27 46 8
25 20 46 25 46 6 1 24 -19 41 -43 17 -24 35 -44 40 -44 10 0 22 161 15 208 -2
19 -9 27 -23 27 -12 0 -19 -6 -17 -17 4 -41 -2 -113 -8 -113 -5 0 -26 28 -48
62 -37 58 -55 75 -66 64z"/>
</g>
</svg>
