<svg xmlns="http://www.w3.org/2000/svg" viewBox="0 0 255.12 226.77"><defs><style>.cls-1{fill:#1d1d1b;}.cls-2{fill:#fff;}</style></defs><g id="Layer_3" data-name="Layer 3"><path class="cls-1" d="M225.11,143.65a7,7,0,0,1,5.63-8l-1.6-9.09a6.94,6.94,0,1,1-2.41-13.66l-1.61-9.09a6.93,6.93,0,1,1-2.4-13.66L221.11,81a6.94,6.94,0,0,1-2.41-13.66l-1.6-9.08a6.94,6.94,0,0,1-2.41-13.66l-1.77-10.06-9.42,1.66a6.94,6.94,0,1,1-13.66,2.41l-9.26,1.63a6.94,6.94,0,1,1-13.66,2.41l-9.25,1.63A6.94,6.94,0,1,1,144,46.71l-9.26,1.63a6.94,6.94,0,1,1-13.66,2.41l-9.26,1.64a6.93,6.93,0,1,1-13.66,2.4l-9.26,1.64a6.94,6.94,0,0,1-13.66,2.41L66,60.47a6.94,6.94,0,0,1-13.67,2.41l-9.25,1.63a6.94,6.94,0,0,1-13.66,2.41l-9,1.59,1.77,10a6.94,6.94,0,0,1,2.41,13.66l1.6,9.09A6.94,6.94,0,0,1,28.58,115l1.6,9.09a6.94,6.94,0,1,1,2.41,13.66l1.6,9.09a6.94,6.94,0,1,1,2.41,13.66l1.6,9.09a6.94,6.94,0,1,1,2.41,13.66l1.59,9,9-1.59a6.94,6.94,0,1,1,13.66-2.41l9.26-1.63a6.94,6.94,0,1,1,13.66-2.41l9.25-1.63a6.94,6.94,0,1,1,13.66-2.41L120,178.5a6.94,6.94,0,1,1,13.66-2.41l9.26-1.64a6.93,6.93,0,0,1,13.66-2.4l9.26-1.64A6.94,6.94,0,0,1,179.48,168l9.26-1.63A6.94,6.94,0,0,1,202.4,164l9.25-1.63a6.94,6.94,0,0,1,13.66-2.41l9.42-1.66-1.58-9A6.93,6.93,0,0,1,225.11,143.65Z"/></g><g id="Layer_4" data-name="Layer 4"><path class="cls-2" d="M87.67,98a7.06,7.06,0,0,1-2,6.3,12.54,12.54,0,0,1-7.15,3.6l-4.54.8,1.61,9.12-8.28,1.46L62.8,93.85l12.7-2.24a12.57,12.57,0,0,1,8.18.85A7.33,7.33,0,0,1,87.67,98Zm-8.17,1.4q-.44-2.48-3.74-1.89l-3.66.64L73,103l3.83-.67a3.88,3.88,0,0,0,2.14-1A2,2,0,0,0,79.5,99.36Z"/><path class="cls-2" d="M110.42,100.8l7,9.6-8.62,1.51-5.8-8.57-2.48.44,1.65,9.31L94,114.53,89.49,89.14,103,86.75a11.4,11.4,0,0,1,7.61.88A7.2,7.2,0,0,1,114.32,93Q115.18,97.82,110.42,100.8Zm-7.84-8.06-3.87.68.83,4.71,4.12-.73a3.35,3.35,0,0,0,1.91-1,2.27,2.27,0,0,0-.65-3.49A3.89,3.89,0,0,0,102.58,92.74Z"/><path class="cls-2" d="M125.16,82.85l4.48,25.39-8.33,1.47-4.48-25.39Z"/><path class="cls-2" d="M143.89,86.73l5,4.87.2,0L146.91,79,155,77.58l4.48,25.4-7.22,1.27-6.55-6.07-5.13-5-.16,0,2.24,12.7-8.13,1.43L130.09,82l7.21-1.27Z"/><path class="cls-2" d="M181.74,72.87l1,5.91-7.71,1.36,3.44,19.49-8.29,1.46L166.78,81.6,159.07,83l-1-5.91Z"/><path class="cls-2" d="M92.61,124.32l1,5.92-7.71,1.35,3.44,19.49-8.29,1.46-3.43-19.48L70,134.42l-1-5.92Z"/><path class="cls-2" d="M116.56,135.45l7,9.6L115,146.57l-5.8-8.57-2.48.43,1.64,9.31-8.2,1.45-4.48-25.4,13.53-2.38a11.34,11.34,0,0,1,7.61.87,7.23,7.23,0,0,1,3.69,5.37C121,130.86,119.73,133.46,116.56,135.45Zm-7.84-8.06-3.87.68.83,4.71,4.12-.73a3.35,3.35,0,0,0,1.91-1,2,2,0,0,0,.52-1.87,2.06,2.06,0,0,0-1.18-1.62A3.85,3.85,0,0,0,108.72,127.39Z"/><path class="cls-2" d="M131.3,117.5l4.48,25.4-8.33,1.47L123,119Z"/><path class="cls-2" d="M161.1,120.75a7.07,7.07,0,0,1-2,6.3,12.51,12.51,0,0,1-7.14,3.6l-4.54.8,1.61,9.12L140.7,142l-4.47-25.4,12.69-2.23a12.6,12.6,0,0,1,8.19.85A7.33,7.33,0,0,1,161.1,120.75Zm-8.17,1.4q-.44-2.48-3.74-1.9l-3.67.65.86,4.85,3.83-.67a3.88,3.88,0,0,0,2.14-1A2,2,0,0,0,152.93,122.15Z"/><rect class="cls-2" x="173.93" y="118.11" width="8.45" height="8.45" rx="4.22" transform="translate(267.69 -74.36) rotate(80)"/></g></svg>