<svg xmlns="http://www.w3.org/2000/svg" viewBox="0 0 255.12 226.77"><defs><style>.cls-1{fill:#1d1d1b;}.cls-2{fill:#fff;}</style></defs><g id="Layer_3" data-name="Layer 3"><path class="cls-1" d="M218.38,160.13a6.94,6.94,0,0,1,6.93-6.94V144a6.94,6.94,0,0,1,0-13.87v-9.23a6.94,6.94,0,0,1,0-13.87V97.76a6.94,6.94,0,0,1,0-13.87V74.66a6.94,6.94,0,0,1,0-13.87V50.58h-9.56a6.94,6.94,0,1,1-13.87,0h-9.4a6.94,6.94,0,1,1-13.88,0h-9.4a6.94,6.94,0,1,1-13.87,0h-9.4a6.94,6.94,0,1,1-13.87,0h-9.4a6.94,6.94,0,1,1-13.87,0h-9.4a6.94,6.94,0,1,1-13.87,0h-9.4a6.94,6.94,0,1,1-13.87,0h-9.4a6.94,6.94,0,1,1-13.87,0H29.81V60.79a6.94,6.94,0,0,1,0,13.87v9.23a6.94,6.94,0,0,1,0,13.87V107a6.94,6.94,0,0,1,0,13.87v9.23a6.94,6.94,0,0,1,0,13.87v9.23a6.94,6.94,0,0,1,0,13.87v9.13H39a6.94,6.94,0,0,1,13.87,0h9.4a6.94,6.94,0,0,1,13.87,0h9.4a6.94,6.94,0,0,1,13.87,0h9.4a6.94,6.94,0,0,1,13.87,0h9.4a6.94,6.94,0,0,1,13.87,0h9.4a6.94,6.94,0,0,1,13.87,0h9.4a6.94,6.94,0,0,1,13.88,0h9.4a6.94,6.94,0,0,1,13.87,0h9.56v-9.13A6.93,6.93,0,0,1,218.38,160.13Z"/></g><g id="Layer_4" data-name="Layer 4"><path class="cls-2" d="M91,91.27a7.05,7.05,0,0,1-3.09,5.85,12.54,12.54,0,0,1-7.67,2.3h-4.6v9.26H67.17V82.9h12.9A12.6,12.6,0,0,1,88,85.16,7.34,7.34,0,0,1,91,91.27Zm-8.29,0c0-1.68-1.11-2.52-3.34-2.52H75.59v4.93h3.89A3.88,3.88,0,0,0,81.76,93,2,2,0,0,0,82.66,91.23Z"/><path class="cls-2" d="M112.87,98l5.23,10.67h-8.75l-4.22-9.45h-2.52v9.45H94.28V82.9H108a11.39,11.39,0,0,1,7.35,2.18,7.24,7.24,0,0,1,2.7,5.93Q118.06,95.9,112.87,98Zm-6.32-9.3h-3.94v4.78h4.19a3.37,3.37,0,0,0,2-.61,2,2,0,0,0,.84-1.76,2.07,2.07,0,0,0-.88-1.8A3.94,3.94,0,0,0,106.55,88.71Z"/><path class="cls-2" d="M130.5,82.9v25.78H122V82.9Z"/><path class="cls-2" d="M148.27,90l4.1,5.67h.21V82.9h8.25v25.78H153.5l-5.4-7.11-4.18-5.78h-.17v12.89H135.5V82.9h7.33Z"/><path class="cls-2" d="M188,82.9v6h-7.83v19.78h-8.41V88.9h-7.83v-6Z"/><path class="cls-2" d="M91.24,118.09v6H83.41v19.79H75V124.09H67.17v-6Z"/><path class="cls-2" d="M112.9,133.21l5.23,10.67h-8.75l-4.23-9.45h-2.51v9.45H94.31V118.09H108a11.34,11.34,0,0,1,7.35,2.19,7.2,7.2,0,0,1,2.7,5.92Q118.09,131.09,112.9,133.21Zm-6.32-9.3h-3.94v4.78h4.19a3.37,3.37,0,0,0,2-.62,2.26,2.26,0,0,0,0-3.55A3.86,3.86,0,0,0,106.58,123.91Z"/><path class="cls-2" d="M130.53,118.09v25.79h-8.46V118.09Z"/><path class="cls-2" d="M159.31,126.46a7.07,7.07,0,0,1-3.1,5.86,12.5,12.5,0,0,1-7.66,2.29h-4.61v9.27h-8.41V118.09h12.89a12.65,12.65,0,0,1,7.92,2.26A7.34,7.34,0,0,1,159.31,126.46Zm-8.29,0c0-1.68-1.12-2.52-3.35-2.52h-3.73v4.92h3.9a3.88,3.88,0,0,0,2.28-.63A2,2,0,0,0,151,126.43Z"/><rect class="cls-2" x="171.61" y="126.76" width="8.45" height="8.45" rx="4.22" transform="translate(306.81 -44.85) rotate(90)"/></g></svg>