<?xml version="1.0" standalone="no"?>
<!DOCTYPE svg PUBLIC "-//W3C//DTD SVG 20010904//EN"
 "http://www.w3.org/TR/2001/REC-SVG-20010904/DTD/svg10.dtd">
<svg version="1.0" xmlns="http://www.w3.org/2000/svg"
 width="1024.000000pt" height="1024.000000pt" viewBox="0 0 1024.000000 1024.000000"
 preserveAspectRatio="xMidYMid meet">

<g transform="translate(0.000000,1024.000000) scale(0.100000,-0.100000)"
fill="#000000" stroke="none">
<path d="M4890 8664 c-426 -29 -761 -101 -1095 -236 -705 -285 -1231 -702
-1646 -1308 -215 -314 -391 -703 -494 -1095 -86 -323 -105 -459 -114 -774 -11
-443 39 -808 160 -1181 135 -414 355 -808 646 -1162 367 -444 827 -787 1361
-1013 855 -362 1870 -363 2717 -3 801 340 1398 893 1812 1678 169 319 294 723
348 1117 21 159 30 568 16 728 -73 807 -425 1588 -978 2166 -423 442 -989 783
-1580 953 -189 54 -481 107 -663 120 -104 8 -430 14 -490 10z m515 -178 c625
-68 1133 -266 1668 -648 153 -110 255 -198 413 -360 230 -234 422 -501 571
-793 75 -148 158 -342 182 -430 9 -33 8 -36 -7 -32 -97 32 -168 48 -222 50
-64 2 -65 2 -68 -26 -4 -35 47 -199 93 -301 19 -43 32 -82 29 -88 -4 -6 -2 -8
3 -5 15 9 66 -60 57 -76 -4 -6 -4 -9 1 -5 9 9 171 -141 167 -154 -1 -5 1 -7 6
-4 5 3 24 -6 43 -21 30 -22 31 -25 9 -18 -14 4 -47 13 -74 21 -129 36 -320 27
-416 -21 l-45 -22 -68 54 c-38 31 -65 59 -60 63 4 4 32 15 60 25 29 9 55 21
58 26 9 14 27 11 19 -3 -4 -7 -3 -9 2 -5 12 11 13 58 1 50 -6 -4 -8 0 -4 11 4
11 3 15 -4 10 -12 -7 -71 45 -64 57 7 11 -25 40 -36 33 -5 -3 -16 1 -24 10
-16 15 -4 33 15 21 15 -9 12 32 -5 65 -9 17 -12 30 -9 30 4 0 0 8 -8 18 -23
24 -50 93 -43 109 2 8 1 12 -4 9 -4 -3 -28 36 -53 87 l-45 92 71 7 c154 17
208 27 227 44 20 18 26 54 9 54 -19 0 -157 98 -221 157 -76 70 -186 216 -271
359 -89 149 -131 166 -180 71 -33 -65 -166 -379 -214 -507 -24 -63 -57 -176
-74 -250 -38 -163 -56 -205 -111 -265 -48 -52 -45 -64 19 -67 23 -1 42 -5 42
-10 0 -5 -11 -31 -25 -58 -13 -26 -43 -94 -65 -149 -73 -185 -165 -346 -243
-428 -29 -31 -35 -33 -101 -33 l-70 0 26 28 c71 75 198 296 261 452 128 320
155 706 72 1036 -89 355 -310 698 -600 931 -210 168 -495 298 -754 342 -152
27 -445 23 -589 -8 -444 -94 -843 -362 -1080 -726 -143 -217 -244 -465 -277
-674 -22 -141 -22 -434 0 -556 48 -270 173 -555 345 -782 l32 -43 -70 0 c-69
0 -70 0 -107 41 -52 58 -143 199 -209 326 -32 59 -74 137 -94 173 -20 36 -45
82 -54 103 l-18 37 49 0 c77 0 83 19 27 81 -40 44 -51 67 -81 168 -86 281
-113 354 -214 590 -60 138 -116 262 -125 276 -11 17 -25 25 -46 25 -32 0 -61
-32 -100 -110 -103 -208 -256 -397 -403 -497 -37 -26 -67 -51 -67 -57 0 -19
15 -35 43 -45 23 -9 207 -31 258 -31 13 0 7 -19 -30 -88 -25 -48 -57 -111 -70
-139 -13 -29 -28 -50 -32 -47 -5 3 -7 -1 -4 -8 7 -21 -68 -153 -87 -152 -9 1
-14 -4 -12 -11 3 -6 -11 -24 -31 -39 -19 -15 -46 -37 -58 -49 -12 -12 -49 -43
-82 -69 -33 -26 -67 -53 -75 -60 -33 -28 -70 -40 -128 -41 -33 -1 -58 -5 -56
-9 3 -5 -3 -8 -13 -8 -10 0 -29 -3 -43 -6 -17 -4 -21 -3 -12 4 8 5 14 12 13
15 0 12 166 167 173 160 10 -11 37 -12 30 -2 -3 5 -9 7 -14 4 -5 -3 -12 -1
-15 5 -7 11 41 75 56 75 4 0 11 4 16 9 5 6 2 6 -6 1 -10 -6 -13 -4 -8 6 93
219 137 358 123 394 -5 15 -15 16 -74 10 -56 -5 -165 -31 -219 -52 -17 -7 48
178 118 333 281 621 751 1137 1353 1484 468 269 870 397 1426 453 97 10 488 5
605 -7z m-14 -746 c23 -13 25 -43 3 -61 -31 -26 -70 25 -44 56 15 18 16 18 41
5z m-546 -20 c7 -23 -10 -50 -30 -50 -20 0 -37 27 -30 50 4 13 15 20 30 20 15
0 26 -7 30 -20z m975 -115 c15 -19 6 -61 -16 -69 -42 -16 -75 24 -54 64 13 24
52 27 70 5z m-1360 -61 c32 -38 -27 -95 -66 -64 -14 13 -19 61 -7 73 12 13 61
7 73 -9z m709 -18 c44 -12 131 -58 131 -69 0 -2 -7 -4 -15 -4 -8 0 -12 3 -10
7 2 4 -8 7 -23 7 -15 0 -60 4 -99 8 l-73 8 0 -132 c0 -108 -3 -133 -15 -137
-14 -6 -152 -216 -176 -268 l-12 -25 -48 49 c-27 28 -49 45 -49 39 0 -8 -6 -7
-17 2 -18 15 -18 16 3 -36 4 -11 2 -13 -9 -9 -14 5 -14 1 -5 -33 5 -21 15 -43
20 -50 5 -7 8 -18 6 -24 -4 -13 -60 70 -78 116 -21 54 -29 144 -19 208 25 160
150 299 308 343 62 17 115 17 180 0z m-1052 -147 c31 -12 77 -35 101 -50 82
-52 101 -54 187 -20 128 52 160 39 116 -47 -24 -47 -56 -76 -100 -91 -77 -25
-126 -8 -254 86 -87 65 -180 111 -227 114 -20 1 -18 4 15 14 58 19 97 18 162
-6z m2017 -58 c20 -32 -39 -65 -61 -35 -17 23 -16 29 3 48 15 16 45 9 58 -13z
m-224 -287 c35 -17 85 -72 173 -190 42 -56 102 -122 134 -148 117 -93 275
-155 398 -157 49 0 56 -2 36 -10 -50 -20 -165 -22 -242 -5 -157 35 -269 109
-395 263 -97 117 -171 186 -238 220 l-51 27 45 12 c49 13 100 9 140 -12z m481
3 c46 -31 61 -63 55 -117 -4 -45 -40 -90 -70 -90 -19 0 -65 124 -58 153 2 5
-2 6 -8 2 -15 -9 -50 4 -50 20 0 15 58 55 81 55 9 0 31 -10 50 -23z m-2522
-13 c57 -47 61 -132 9 -168 -43 -31 -53 -22 -67 59 -10 64 -15 75 -32 75 -26
0 -76 -26 -82 -42 -3 -7 -6 -2 -6 11 -1 14 13 37 33 57 44 44 99 47 145 8z
m1228 -78 c21 -32 147 -244 272 -456 34 -58 70 -116 80 -129 l18 -23 29 46
c16 25 32 46 35 46 3 0 25 -35 49 -77 24 -43 74 -128 112 -189 37 -62 68 -115
68 -118 0 -3 -311 -6 -690 -6 l-691 0 39 58 c37 54 77 121 136 225 l27 48 37
-41 37 -42 54 94 c30 51 88 149 129 218 41 69 109 182 151 252 42 70 78 128
81 128 3 0 15 -15 27 -34z m-1388 -61 c0 -5 -4 -3 -9 5 -5 8 -9 22 -9 30 0 16
17 -16 18 -35z m574 -87 c38 -44 10 -108 -48 -108 -65 0 -91 74 -40 117 31 27
59 24 88 -9z m3126 -208 c43 -54 57 -78 50 -87 -7 -8 -17 -9 -27 -4 -13 7
-132 65 -163 79 -4 2 -3 -14 2 -35 5 -21 18 -81 29 -133 11 -52 27 -126 36
-165 14 -58 18 -148 21 -527 3 -252 8 -458 11 -458 4 0 30 17 57 38 149 112
234 162 273 162 22 0 21 -3 -20 -50 -32 -37 -77 -68 -181 -126 l-138 -76 2
-164 1 -164 38 23 c40 23 80 53 140 102 76 62 104 81 159 104 31 13 61 27 68
33 7 5 27 12 45 15 31 4 30 2 -29 -41 -35 -25 -86 -70 -114 -100 -29 -30 -55
-54 -58 -53 -3 1 -17 -6 -31 -14 -71 -45 -179 -107 -208 -118 -22 -9 -29 -17
-23 -25 5 -6 11 -75 13 -153 2 -78 6 -144 10 -148 3 -4 53 25 110 63 56 38
123 80 148 92 25 12 52 25 61 30 9 5 38 12 64 16 39 5 46 4 40 -7 -18 -28 -40
-49 -53 -49 -7 0 -25 -9 -40 -19 -39 -28 -195 -118 -287 -168 -44 -23 -74 -43
-67 -43 9 0 12 -36 12 -145 0 -109 -3 -145 -12 -146 -8 0 -7 -3 2 -6 9 -4 -6
-11 -35 -17 -56 -13 -526 -9 -505 4 8 5 3 10 -15 14 -17 4 -25 12 -21 21 3 8
-8 22 -30 34 -19 11 -34 18 -34 16 0 -3 15 -14 33 -25 17 -11 27 -20 20 -20
-8 0 -10 -7 -6 -17 6 -16 5 -17 -13 -4 -43 33 -123 115 -118 122 7 13 -15 49
-28 46 -12 -2 -82 112 -73 121 2 3 31 -4 62 -14 48 -15 90 -18 240 -19 113 0
186 4 192 10 8 8 -5 23 -41 50 -68 52 -105 75 -111 69 -2 -2 -48 1 -102 7 -85
9 -131 19 -205 45 -9 4 8 13 40 23 67 21 118 47 148 74 25 24 28 37 8 37 -28
0 -27 21 2 58 38 48 96 152 89 158 -5 5 -19 7 -90 13 -11 0 -15 6 -11 13 5 7
1 9 -13 6 -12 -3 -27 -1 -34 4 -10 7 -9 8 6 3 13 -4 16 -3 10 3 -5 5 -36 17
-68 27 -32 10 -60 22 -63 26 -3 5 7 4 22 -1 36 -14 42 -6 10 15 -18 12 -30 14
-39 7 -9 -7 -24 2 -54 34 l-42 44 108 0 c59 0 156 3 214 7 l107 6 0 94 c0 71
3 93 14 93 16 0 76 115 81 159 4 31 2 30 -39 -27 -24 -33 -64 -76 -89 -97 -46
-38 -147 -101 -147 -91 0 2 24 36 53 75 29 38 77 113 107 165 62 109 92 143
135 148 38 4 43 17 44 101 1 62 -1 67 -20 67 -50 0 -106 -26 -149 -70 -88 -88
-95 -91 -55 -20 78 138 188 414 250 628 l7 23 -41 -25 c-22 -14 -43 -26 -45
-26 -3 0 8 19 23 43 24 35 181 368 181 383 0 3 7 21 15 41 l15 36 50 -79 c27
-43 76 -113 109 -154z m-4545 122 c49 -124 138 -313 165 -351 29 -40 26 -44
-13 -18 -18 12 -31 27 -28 32 3 6 0 5 -7 -1 -9 -8 -3 -36 23 -115 58 -178 165
-440 210 -515 l43 -72 -72 59 c-67 56 -114 79 -158 79 -16 0 -17 -9 -15 -81
l3 -81 39 -4 c52 -4 74 -27 157 -161 39 -62 90 -137 115 -168 25 -30 40 -55
34 -55 -38 0 -189 109 -236 170 -21 28 -39 50 -41 50 -7 0 23 -57 40 -77 11
-12 16 -27 12 -34 -5 -8 -4 -10 4 -5 6 4 14 0 18 -11 3 -10 12 -25 19 -33 8
-10 14 -50 16 -105 l3 -90 95 -8 c52 -4 157 -6 233 -5 75 2 137 1 136 -2 0 -3
-26 -27 -57 -53 -78 -66 -184 -117 -259 -124 -32 -3 -67 -11 -77 -18 -17 -13
-17 -15 0 -47 9 -18 34 -58 55 -89 34 -50 36 -58 22 -71 -25 -26 0 -53 79 -86
40 -16 88 -33 106 -37 31 -6 32 -8 15 -20 -26 -18 -155 -44 -245 -48 -75 -4
-79 -6 -148 -57 -95 -71 -87 -75 140 -75 137 0 191 4 248 19 40 10 75 17 76
15 2 -2 -20 -40 -49 -84 -60 -89 -160 -189 -181 -181 -7 3 -16 0 -20 -6 -5 -7
-2 -8 7 -3 12 7 12 6 1 -7 -7 -9 -21 -14 -33 -11 -11 3 -19 2 -18 -3 4 -21 -2
-28 -11 -14 -5 8 -10 10 -10 3 0 -17 -379 -24 -488 -8 l-53 8 3 157 3 158 -65
32 c-36 18 -109 61 -162 96 -111 72 -156 97 -166 91 -4 -3 -17 9 -30 24 l-24
29 35 0 c37 0 105 -28 203 -84 34 -19 65 -32 70 -28 4 4 4 1 0 -6 -4 -7 0 -15
11 -19 10 -4 20 -9 23 -13 3 -3 26 -21 53 -39 l47 -32 -6 156 c-6 128 -5 158
7 165 11 7 9 10 -6 16 -11 4 -67 37 -124 73 -58 36 -108 65 -113 63 -5 -1 -35
27 -69 62 -33 35 -82 79 -109 98 -89 60 -59 61 67 3 39 -18 74 -31 77 -27 3 3
6 0 6 -7 0 -8 7 -10 22 -6 16 6 20 4 15 -8 -4 -12 -2 -14 10 -10 12 5 15 2 10
-10 -7 -19 58 -81 75 -71 6 4 8 3 5 -3 -4 -6 0 -16 8 -23 8 -7 15 -10 15 -7 0
3 12 -5 26 -18 15 -14 31 -22 37 -18 5 3 7 1 3 -5 -8 -13 6 -23 21 -14 8 5 12
59 14 157 l2 150 -100 60 c-123 74 -146 91 -206 151 -33 33 -44 50 -35 55 14
9 35 -1 101 -47 26 -19 49 -34 52 -34 3 0 34 -23 70 -51 35 -28 69 -48 75 -44
5 3 7 0 4 -9 -3 -9 3 -17 16 -21 26 -8 40 3 20 15 -8 6 -10 10 -5 10 7 0 10
169 10 487 0 432 2 501 19 598 10 61 18 124 18 142 -1 18 8 43 21 59 12 15 15
24 7 19 -8 -5 -31 -19 -51 -31 -32 -20 -138 -48 -147 -39 -2 2 10 18 26 36 47
55 118 161 143 212 13 26 25 47 28 47 4 0 23 -44 45 -98z m861 -246 c0 -36
-26 -56 -49 -37 -31 26 -11 75 29 69 15 -2 20 -11 20 -32z m559 -45 c21 -23
14 -56 -14 -71 -27 -15 -60 8 -60 40 0 49 42 66 74 31z m1574 -1 c26 -25 27
-29 6 -58 -18 -26 -41 -28 -66 -5 -22 20 -23 41 -1 65 21 23 34 23 61 -2z
m454 -153 c11 -27 71 -67 102 -67 36 0 22 -20 -25 -35 -55 -19 -82 -51 -94
-111 -8 -47 -19 -42 -34 16 -15 57 -43 84 -103 100 -43 12 -43 25 0 35 57 12
88 40 102 91 18 69 23 73 32 34 5 -19 14 -48 20 -63z m-2329 -81 c10 -8 27
-12 38 -9 18 5 20 2 14 -29 -6 -30 -3 -36 19 -46 30 -13 34 -30 9 -39 -27 -10
-34 -25 -27 -57 6 -27 5 -28 -20 -22 -15 4 -36 1 -47 -5 -17 -8 -23 -8 -30 2
-6 10 -13 10 -34 1 -36 -17 -38 -16 -32 15 7 36 -1 53 -29 64 -32 12 -31 39 1
39 23 0 25 4 25 43 l0 43 35 -4 c21 -3 35 0 35 7 0 15 21 13 43 -3z m-1933
-62 c0 -11 -90 -175 -123 -224 -43 -64 -117 -150 -129 -150 -6 0 -19 -10 -29
-22 -18 -20 -19 -20 -19 -2 0 37 39 146 69 192 55 86 231 242 231 206z m6115
-42 c119 -95 209 -230 231 -346 l7 -38 -29 23 c-106 86 -224 252 -274 385 -13
34 -2 30 65 -24z m-2234 -212 l29 -35 -2 -360 -3 -360 -77 -3 -78 -3 0 202 c0
174 -2 205 -17 221 -15 17 -50 18 -709 18 -687 0 -693 0 -704 -20 -7 -13 -12
-99 -13 -218 l-2 -197 -77 -3 -78 -3 0 368 c0 398 1 402 54 423 11 5 387 8
835 7 l813 -2 29 -35z m1815 -27 c-7 -7 -26 7 -26 19 0 6 6 6 15 -2 9 -7 13
-15 11 -17z m-5306 -174 c0 -6 -7 -8 -16 -5 -8 3 -13 2 -9 -3 9 -15 -100 -102
-119 -95 -9 3 -13 11 -10 16 4 6 1 9 -7 6 -8 -3 -19 2 -26 11 -10 14 -2 21 55
48 67 32 132 43 132 22z m1631 -91 c2 -63 -1 -297 -8 -790 l-4 -258 -49 0
c-30 0 -50 -5 -52 -12 -5 -15 -18 640 -18 903 0 209 3 216 93 218 l37 1 1 -62z
m2129 22 c4 -14 5 -260 2 -548 l-5 -522 -48 0 -49 0 0 230 c0 161 -4 240 -12
263 -10 24 -12 107 -10 320 l3 288 56 -3 c51 -3 57 -6 63 -28z m-4000 -134
c-8 -7 -38 -34 -67 -59 -28 -25 -49 -49 -45 -53 4 -4 -1 -4 -10 -1 -13 5 -15
2 -11 -11 6 -15 5 -15 -10 -3 -9 7 -18 11 -18 7 -1 -3 -2 -12 -3 -18 -1 -8
-12 -12 -27 -10 -31 3 -99 -34 -154 -83 -22 -20 -60 -50 -85 -67 -25 -18 -48
-36 -52 -42 -5 -6 -8 -2 -8 10 0 35 67 136 130 195 96 90 222 147 330 148 38
1 42 -1 30 -13z m5892 -11 c126 -44 232 -125 300 -229 69 -106 44 -115 -69
-23 -91 73 -169 119 -192 112 -9 -2 -23 0 -31 6 -12 8 -10 9 8 4 12 -3 22 -4
22 -1 0 7 -62 40 -76 40 -6 1 -39 27 -73 59 l-62 57 51 0 c28 0 82 -11 122
-25z m285 -17 c18 -20 17 -21 -2 -10 -11 6 -29 17 -40 26 -20 15 -20 15 2 10
12 -4 30 -15 40 -26z m-6579 6 c-9 -9 -22 -14 -30 -11 -8 3 -4 8 12 15 35 15
37 14 18 -4z m3892 -119 l0 -125 -610 0 -610 0 0 119 c0 86 3 121 13 124 6 3
281 6 610 6 l597 1 0 -125z m2388 10 c-3 -3 -9 2 -12 12 -6 14 -5 15 5 6 7 -7
10 -15 7 -18z m-5923 -283 c78 -29 185 -102 235 -161 l39 -48 -52 -3 c-29 -2
-91 -4 -140 -4 -48 -1 -87 -4 -87 -8 0 -13 -40 -9 -54 5 -7 6 -38 44 -71 82
-95 114 -138 145 -151 110 -4 -10 -16 -13 -37 -11 -48 6 -89 -4 -83 -20 3 -8
1 -14 -4 -14 -6 0 -10 5 -10 11 0 6 -9 8 -20 4 -23 -7 -26 3 -7 29 40 55 318
73 442 28z m6220 2 c56 -18 60 -22 63 -53 3 -31 2 -33 -20 -27 -13 3 -29 6
-37 6 -7 0 -11 6 -8 14 4 10 -5 16 -29 21 -20 3 -41 8 -48 11 -7 3 -18 -5 -24
-18 -11 -21 -12 -21 -7 -2 4 16 0 23 -17 27 -19 5 -36 -7 -93 -63 -39 -39 -76
-70 -83 -70 -7 0 -12 -6 -10 -12 3 -20 -12 -58 -23 -58 -6 0 -7 5 -4 10 3 6 2
10 -4 10 -5 0 -11 -6 -14 -12 -2 -8 -23 -13 -54 -13 -34 0 -49 3 -46 11 3 8
-10 9 -42 4 -44 -7 -52 3 -10 12 11 3 -15 5 -57 5 -43 -1 -78 -4 -78 -7 0 -4
-7 -7 -14 -7 -24 0 -3 29 68 94 68 62 143 106 223 129 71 20 289 13 368 -12z
m-1982 -59 c16 -22 163 -139 177 -140 3 -1 16 -5 29 -9 24 -8 24 -9 6 -22 -21
-15 -8 -19 15 -5 8 6 17 8 22 5 12 -8 -2 -32 -29 -49 -14 -10 -23 -13 -19 -7
3 5 -1 13 -10 16 -8 3 -13 2 -10 -2 7 -12 -119 -82 -153 -85 -17 -1 -31 -5
-31 -9 0 -5 -11 -8 -25 -8 l-25 0 0 193 c1 211 -3 202 53 122z m-3816 36 c-1
-15 -4 -17 -14 -9 -15 12 -17 22 -3 13 6 -3 10 -1 10 4 0 6 2 11 4 11 3 0 4
-9 3 -19z m1221 -125 c2 -132 2 -138 -20 -156 -37 -30 -127 -55 -149 -41 -10
6 -26 11 -35 11 -22 0 -106 59 -99 71 3 5 0 6 -8 3 -15 -5 -43 21 -30 29 24
13 43 16 37 6 -4 -7 -1 -10 7 -7 8 3 13 11 12 17 -2 6 3 11 10 11 7 0 29 9 49
19 19 11 39 17 44 13 4 -4 5 -2 2 3 -3 6 9 21 26 35 25 20 28 20 16 4 -8 -11
6 2 33 30 26 28 53 50 60 48 6 -2 9 0 5 3 -11 11 11 47 25 42 8 -2 13 -46 15
-141z m-1970 87 c-10 -2 -28 -2 -40 0 -13 2 -5 4 17 4 22 1 32 -1 23 -4z
m6512 3 c0 -2 -7 -7 -16 -10 -8 -3 -12 -2 -9 4 6 10 25 14 25 6z m-2380 -26
c5 -8 10 -111 10 -228 l0 -212 -889 0 -889 0 -4 203 c-2 111 1 212 6 224 5 12
18 24 30 26 11 3 405 4 874 3 746 -1 854 -3 862 -16z m2299 -97 c-4 -23 3 -31
24 -26 19 4 19 3 5 -6 -9 -6 -39 -14 -68 -17 -51 -5 -51 -5 -34 15 10 11 21
18 26 15 4 -3 8 -1 8 5 0 5 8 12 18 14 9 3 18 5 20 6 1 0 1 -2 1 -6z m-6315
-39 c3 -8 2 -12 -4 -9 -6 3 -10 10 -10 16 0 14 7 11 14 -7z m6462 -136 c-8
-23 -15 -38 -16 -33 0 6 -9 -3 -19 -19 -28 -42 -58 -55 -121 -55 l-55 0 55 50
c48 44 159 113 168 104 2 -2 -3 -23 -12 -47z m-6626 21 c46 -28 150 -120 150
-132 0 -14 -89 0 -117 19 -26 17 -83 100 -83 121 0 18 9 16 50 -8z m2177 -261
c-3 -8 -6 -5 -6 6 -1 11 2 17 5 13 3 -3 4 -12 1 -19z m-1862 -37 c55 -11 140
-23 189 -27 116 -9 92 -24 -38 -24 l-100 0 49 -34 c27 -19 53 -32 59 -29 6 3
8 3 4 -2 -11 -11 113 -97 262 -182 23 -13 20 -14 -45 -10 -39 2 -85 12 -104
21 -41 22 -259 176 -305 216 -18 16 -35 27 -38 25 -2 -3 -22 14 -44 36 -36 37
-37 40 -14 35 14 -3 70 -14 125 -25z m6014 -28 c-30 -32 -57 -54 -60 -49 -4 4
-16 -1 -27 -12 -11 -11 -42 -33 -68 -48 -27 -16 -76 -49 -109 -74 -77 -58
-144 -87 -224 -96 -70 -8 -77 5 -17 32 60 27 231 141 228 153 -1 7 2 10 7 7 5
-3 35 10 67 29 l58 35 -95 1 c-141 1 -149 13 -18 27 63 7 152 21 199 31 47 10
91 19 99 20 8 0 -10 -25 -40 -56z m-2502 -26 l0 -34 -516 -6 c-283 -3 -516 -5
-517 -4 -1 1 -4 19 -8 40 l-7 37 524 0 524 0 0 -33z m363 -217 l0 -250 -130 0
-131 0 3 143 3 142 48 3 47 3 0 99 0 99 78 4 c42 1 78 4 80 5 1 1 2 -110 2
-248z m-1620 140 l0 -99 49 -7 49 -6 1 -139 2 -139 -131 0 -130 0 0 245 0 245
80 0 80 0 0 -100z m-2393 -86 l98 -95 -48 4 c-33 3 -65 16 -107 43 -55 36 -61
43 -80 103 -11 35 -20 67 -20 73 0 16 54 -28 157 -128z m6386 104 c-9 -50 -23
-69 -89 -130 -64 -58 -103 -74 -154 -63 l-29 6 77 71 c63 57 184 148 198 148
2 0 1 -15 -3 -32z m-3287 -350 c-3 -128 -5 -299 -6 -380 l0 -148 -154 0 -154
0 18 48 c42 109 52 190 57 455 l5 257 120 0 120 0 -6 -232z m287 -25 c6 -272
14 -352 45 -445 l19 -58 -153 0 -153 0 -1 380 0 380 118 0 119 0 6 -257z m247
100 c0 -183 20 -287 72 -386 36 -67 105 -147 162 -189 l39 -28 -190 0 -191 0
-21 53 c-44 112 -52 171 -58 445 l-6 262 97 0 96 0 0 -157z m-2785 -76 c51
-23 73 -43 97 -90 18 -35 19 -57 16 -305 l-3 -267 -28 -59 c-32 -69 -83 -135
-130 -168 -17 -12 -27 -16 -21 -8 43 56 74 238 74 428 l0 83 -52 53 c-68 68
-103 86 -197 97 -42 5 -85 11 -96 12 -130 20 -176 24 -302 26 -77 1 -82 2 -80
22 1 19 6 21 50 16 62 -5 59 16 -4 24 l-44 6 50 3 c28 2 60 2 71 1 12 -1 32 3
45 8 23 8 22 9 -14 16 -21 4 -52 5 -70 1 -26 -5 -29 -4 -13 5 11 7 39 9 68 6
27 -4 46 -2 43 2 -2 5 -77 12 -166 16 -136 6 -161 10 -166 24 -2 9 -11 29 -20
44 l-15 28 434 -3 c390 -3 437 -5 473 -21z m5419 -29 l-26 -53 -141 1 c-90 1
-125 -1 -97 -6 l45 -7 -40 -2 c-22 -2 -51 -7 -65 -11 -17 -6 -8 -7 30 -5 30 3
47 2 37 -1 -9 -3 -15 -10 -12 -15 4 -5 -6 -9 -22 -10 -25 0 -26 -1 -8 -9 11
-5 14 -9 8 -9 -7 -1 -13 -7 -13 -15 0 -22 -16 -28 -83 -32 -34 -2 -84 -8 -112
-14 -27 -5 -86 -15 -130 -23 -93 -16 -135 -36 -200 -95 l-46 -44 3 -181 c2
-149 6 -188 21 -216 9 -19 17 -42 17 -51 0 -10 7 -23 15 -30 8 -7 15 -20 15
-29 -1 -12 -3 -11 -13 5 -7 12 -17 19 -23 17 -18 -6 -84 75 -118 146 l-31 66
-3 250 c-2 137 -1 264 3 282 11 61 77 118 155 134 19 4 221 7 447 8 l413 1
-26 -52z m-4174 -42 c0 -81 10 -120 33 -129 9 -3 77 -7 152 -8 74 -1 138 -5
140 -9 3 -4 -71 -10 -163 -12 -145 -5 -175 -9 -227 -29 -82 -33 -145 -70 -138
-82 3 -6 1 -7 -4 -4 -6 4 -36 -2 -68 -13 -80 -28 -203 -28 -273 0 -29 11 -57
18 -61 16 -4 -3 -13 0 -21 6 -12 8 -11 9 5 4 15 -4 12 1 -10 19 -16 14 -36 23
-43 20 -7 -3 -10 0 -7 5 16 26 -152 72 -216 59 -81 -15 -79 -17 -79 64 0 58
-5 80 -25 116 -14 23 -25 45 -25 47 0 2 232 4 515 4 l515 0 0 -74z m3054 27
c-19 -36 -24 -62 -24 -119 l0 -73 -102 2 c-99 2 -105 1 -163 -31 -187 -101
-202 -106 -313 -109 -83 -2 -111 1 -148 17 -25 11 -51 17 -56 13 -6 -3 -8 -2
-5 4 9 14 -137 88 -198 101 -62 13 -285 16 -267 3 11 -6 9 -9 -6 -13 -16 -5
-42 18 -42 37 0 3 59 5 131 5 125 0 163 7 181 34 4 6 8 48 8 94 l0 82 514 0
513 0 -23 -47z m-4991 -50 c-7 -2 -19 -2 -25 0 -7 3 -2 5 12 5 14 0 19 -2 13
-5z m6034 -45 c-3 -8 -6 -5 -6 6 -1 11 2 17 5 13 3 -3 4 -12 1 -19z m-6147
-33 c0 -5 -5 -3 -10 5 -5 8 -10 20 -10 25 0 6 5 3 10 -5 5 -8 10 -19 10 -25z
m6117 13 c-3 -8 -6 -5 -6 6 -1 11 2 17 5 13 3 -3 4 -12 1 -19z m26 -18 c-3
-12 -8 -19 -11 -16 -5 6 5 36 12 36 2 0 2 -9 -1 -20z m-6083 -10 c0 -5 -15 -9
-32 -9 l-33 1 30 8 c17 4 31 8 33 9 1 0 2 -3 2 -9z m3823 -147 c-3 -7 0 -13 6
-13 6 0 11 5 11 11 0 6 8 1 19 -12 17 -22 25 -23 99 -20 87 3 137 -12 214 -65
21 -15 42 -23 49 -18 7 4 10 3 6 -3 -4 -6 3 -19 14 -29 19 -17 39 -19 211 -19
l189 0 42 45 c62 67 100 87 194 102 91 14 137 8 141 -19 3 -20 0 -21 -75 -21
-94 1 -130 -13 -199 -76 l-52 -46 -291 0 c-325 0 -312 -2 -451 77 -88 50 -174
123 -142 120 12 0 18 -6 15 -14z m-3471 -24 c140 -47 212 -132 232 -276 7 -49
-23 -156 -56 -198 -18 -23 -22 -25 -30 -11 -10 18 -43 22 -53 6 -3 -5 -13 -10
-22 -10 -9 0 -13 3 -9 8 4 4 12 7 18 7 18 0 49 106 49 166 0 59 -27 133 -44
122 -6 -4 -8 0 -5 8 6 16 -16 41 -28 31 -4 -4 -4 -2 -1 4 10 17 -16 34 -42 29
-12 -2 -19 0 -16 6 4 5 11 6 17 3 6 -4 8 -2 4 4 -19 31 -187 88 -280 96 -32 2
-63 9 -69 15 -8 8 29 11 131 11 118 0 153 -4 204 -21z m5656 9 c-3 -8 -20 -12
-44 -12 -40 2 -171 -31 -234 -59 -19 -8 -57 -36 -85 -62 -27 -25 -44 -44 -38
-40 9 4 11 1 7 -9 -3 -9 -9 -14 -13 -11 -15 9 -43 -78 -44 -136 0 -61 35 -159
57 -159 6 0 5 5 -2 12 -7 7 -12 16 -12 21 0 5 7 2 15 -7 8 -8 15 -19 15 -24 0
-6 6 -12 13 -15 7 -2 8 -8 3 -13 -5 -5 -11 -4 -13 4 -3 6 -9 12 -15 12 -6 0
-7 -8 -3 -17 4 -12 -3 -9 -22 10 -31 29 -53 35 -53 15 -1 -25 -40 38 -55 86
-31 101 -12 206 54 292 38 51 96 87 177 109 66 18 297 20 292 3z m-4776 -26
c26 -11 60 -32 74 -46 15 -14 32 -22 37 -19 6 3 7 1 4 -4 -8 -13 17 -36 28
-25 5 4 5 1 0 -7 -15 -26 20 -31 190 -30 181 1 215 9 259 58 39 43 102 71 183
80 54 6 82 5 92 -3 11 -8 13 -8 7 1 -5 9 -2 11 8 7 9 -3 16 -10 16 -15 0 -5 3
-8 8 -6 4 1 9 -2 11 -8 3 -5 -44 -35 -104 -65 l-108 -55 -315 -3 c-220 -2
-318 1 -326 8 -8 8 -6 9 9 4 18 -7 19 -6 6 10 -48 59 -194 114 -268 102 -29
-4 -33 -2 -33 19 0 23 2 23 88 21 62 -2 101 -9 134 -24z m958 14 c0 -2 -7 -7
-16 -10 -8 -3 -12 -2 -9 4 6 10 25 14 25 6z m-1748 -218 c-2 -10 -6 -18 -7
-18 -1 0 -5 8 -7 18 -3 11 0 19 7 19 7 0 10 -8 7 -19z m15 -90 c-3 -7 -5 -2
-5 12 0 14 2 19 5 13 2 -7 2 -19 0 -25z m2598 13 l1970 -1 13 -52 c17 -74 72
-183 129 -253 42 -52 196 -170 246 -188 17 -6 -44 -68 -183 -187 -262 -224
-422 -330 -726 -483 -426 -215 -900 -334 -1405 -354 -227 -8 -483 18 -799 82
-583 118 -1160 426 -1639 874 l-55 51 60 36 c179 108 292 252 326 416 12 59
21 66 73 62 11 -1 907 -2 1990 -3z m2522 -93 c-3 -8 -6 -5 -6 6 -1 11 2 17 5
13 3 -3 4 -12 1 -19z m38 -18 c-3 -5 -14 -10 -23 -9 -14 0 -13 2 3 9 27 11 27
11 20 0z m-5178 -42 c-3 -8 -6 -5 -6 6 -1 11 2 17 5 13 3 -3 4 -12 1 -19z"/>
<path d="M4915 8354 c-454 -47 -789 -132 -1176 -300 -223 -96 -262 -126 -222
-165 l22 -22 118 53 c383 171 656 256 1033 321 116 20 169 23 375 23 261 0
353 -10 610 -66 267 -58 554 -154 817 -274 64 -30 122 -54 128 -54 5 0 19 9
30 20 31 31 12 53 -87 101 -131 62 -162 75 -348 143 -267 99 -550 169 -805
201 -124 16 -418 27 -495 19z"/>
<path d="M3220 7719 c-141 -74 -312 -182 -343 -217 -15 -16 -16 -25 -8 -40 19
-36 49 -37 94 -5 63 44 238 149 336 200 103 54 111 60 111 84 0 20 -25 49 -43
49 -7 0 -73 -32 -147 -71z"/>
<path d="M6740 7770 c-12 -12 -20 -29 -18 -38 2 -10 60 -48 138 -90 74 -41
180 -101 234 -135 55 -34 108 -65 117 -69 19 -7 59 17 59 36 0 33 -149 137
-350 243 -148 77 -154 79 -180 53z"/>
<path d="M3534 7745 c-15 -23 -15 -27 0 -50 19 -30 46 -32 69 -7 23 25 21 48
-5 66 -31 22 -45 20 -64 -9z"/>
<path d="M6536 7754 c-30 -30 -9 -84 33 -84 41 0 58 70 22 90 -27 14 -37 13
-55 -6z"/>
<path d="M3146 7367 c-28 -21 -18 -78 17 -95 24 -12 31 -11 52 2 14 9 28 28
31 42 13 50 -55 84 -100 51z"/>
<path d="M6887 7362 c-29 -32 -21 -69 21 -91 48 -25 98 38 68 84 -20 30 -65
33 -89 7z"/>
<path d="M2650 7270 c-51 -51 -13 -82 122 -98 102 -13 176 -39 237 -86 43 -32
48 -32 77 0 33 35 30 61 -10 99 -88 82 -372 139 -426 85z m441 -117 c13 -16
12 -17 -3 -4 -10 7 -18 15 -18 17 0 8 8 3 21 -13z"/>
<path d="M7300 7284 c-71 -14 -170 -45 -206 -66 -64 -37 -96 -66 -88 -79 5 -8
3 -9 -5 -4 -9 5 -12 -1 -9 -21 2 -18 12 -34 29 -43 24 -13 29 -12 74 19 64 44
123 65 225 80 152 21 189 44 151 91 -15 19 -29 23 -82 25 -35 1 -75 0 -89 -2z"/>
<path d="M2476 7030 c-48 -51 -54 -68 -34 -88 24 -24 63 -13 105 31 44 44 51
61 39 90 -15 34 -60 21 -110 -33z"/>
<path d="M7539 7059 c-9 -18 -6 -28 17 -62 16 -22 41 -49 56 -60 25 -19 28
-19 52 -3 36 23 32 50 -15 101 -48 51 -90 61 -110 24z"/>
<path d="M2286 6763 c-93 -118 -106 -175 -40 -181 23 -2 33 4 51 30 12 18 40
59 62 92 23 32 41 63 41 67 0 15 -39 49 -55 49 -8 0 -35 -25 -59 -57z"/>
<path d="M7762 6804 c-33 -23 -27 -53 28 -130 61 -88 73 -98 105 -90 39 10 32
50 -24 138 -57 88 -78 104 -109 82z"/>
<path d="M2426 6135 c-11 -8 -15 -15 -9 -15 6 0 16 7 23 15 16 19 11 19 -14 0z"/>
<path d="M2452 6128 c-14 -14 -16 -28 -3 -28 5 0 11 9 14 20 6 23 5 24 -11 8z"/>
<path d="M7665 6119 c-4 -6 -5 -12 -2 -15 2 -3 7 2 10 11 7 17 1 20 -8 4z"/>
<path d="M7723 6112 c-8 -5 -2 -13 17 -24 18 -10 32 -13 36 -7 3 5 2 9 -3 8
-15 -4 -43 13 -37 22 6 11 3 11 -13 1z"/>
<path d="M2360 6094 c-17 -11 -19 -13 -5 -9 35 12 50 13 70 3 20 -9 20 -9 1 6
-24 20 -34 19 -66 0z"/>
<path d="M7818 6052 c22 -19 29 -31 21 -34 -9 -3 -7 -6 5 -11 11 -4 15 -3 10
4 -4 8 1 9 17 4 30 -9 27 -6 -36 34 l-50 32 33 -29z"/>
<path d="M2287 6049 c-15 -11 -24 -26 -20 -32 4 -6 0 -8 -10 -4 -9 3 -19 3
-21 -2 -3 -4 10 -7 29 -7 18 0 31 4 28 8 -2 5 2 11 11 14 8 3 14 14 13 25 -1
10 -1 19 -2 19 0 0 -12 -10 -28 -21z m13 -14 c-7 -8 -18 -15 -24 -15 -6 0 -2
7 8 15 25 19 32 19 16 0z"/>
<path d="M7730 6001 c0 -7 -7 -11 -14 -8 -10 4 -13 1 -9 -9 3 -7 9 -14 13 -14
10 0 22 31 15 38 -3 3 -5 0 -5 -7z"/>
<path d="M2200 5980 c-9 -6 -10 -10 -3 -10 6 0 15 5 18 10 8 12 4 12 -15 0z"/>
<path d="M2350 5975 c0 -5 5 -17 10 -25 5 -8 10 -10 10 -5 0 6 -5 17 -10 25
-5 8 -10 11 -10 5z"/>
<path d="M7941 5961 c-10 -7 -7 -9 12 -8 14 1 23 5 20 10 -6 9 -15 9 -32 -2z"/>
<path d="M2135 5940 c-3 -5 -4 -10 0 -10 3 0 1 -9 -5 -20 -7 -14 -7 -20 0 -20
9 0 12 14 9 36 0 4 5 11 13 15 9 6 9 9 1 9 -6 0 -15 -4 -18 -10z"/>
<path d="M8007 5929 c12 -12 25 -20 28 -17 3 3 -7 13 -22 23 l-28 17 22 -23z"/>
<path d="M8045 5869 c-4 -6 -5 -12 -2 -15 2 -3 7 2 10 11 7 17 1 20 -8 4z"/>
<path d="M2060 5781 c0 -6 4 -13 10 -16 6 -3 7 1 4 9 -7 18 -14 21 -14 7z"/>
<path d="M1984 5732 c5 -8 1 -21 -8 -30 -14 -16 -14 -18 2 -18 19 0 25 37 8
53 -5 5 -6 3 -2 -5z"/>
<path d="M7983 5653 c9 -2 15 -9 12 -14 -3 -5 1 -6 10 -2 13 5 14 7 3 14 -7 5
-20 8 -28 8 -11 -1 -10 -3 3 -6z"/>
<path d="M8053 5633 c9 -2 23 -2 30 0 6 3 -1 5 -18 5 -16 0 -22 -2 -12 -5z"/>
<path d="M7016 5522 c-2 -4 -1 -14 4 -22 7 -11 9 -9 7 8 -1 24 -3 26 -11 14z"/>
<path d="M6658 4993 c7 -3 16 -2 19 1 4 3 -2 6 -13 5 -11 0 -14 -3 -6 -6z"/>
<path d="M6640 4241 c0 -6 4 -13 10 -16 6 -3 7 1 4 9 -7 18 -14 21 -14 7z"/>
<path d="M6840 4196 c0 -3 9 -10 20 -16 11 -6 20 -8 20 -6 0 3 -9 10 -20 16
-11 6 -20 8 -20 6z"/>
<path d="M3310 4959 c-20 -11 -27 -19 -18 -19 23 0 68 21 68 32 0 12 -11 9
-50 -13z"/>
<path d="M3431 4214 c-13 -15 -17 -24 -10 -22 12 4 46 48 37 48 -2 0 -15 -12
-27 -26z"/>
<path d="M2380 5661 c13 -10 13 -12 0 -22 -13 -9 -13 -10 0 -6 8 2 15 10 15
17 0 7 -7 15 -15 17 -13 4 -13 3 0 -6z"/>
<path d="M2330 5636 c0 -2 7 -9 15 -16 9 -7 15 -8 15 -2 0 5 -7 12 -15 16 -8
3 -15 4 -15 2z"/>
<path d="M2293 5620 c-30 -12 -29 -18 2 -12 14 2 25 8 25 13 0 5 -1 9 -2 8 -2
0 -13 -4 -25 -9z"/>
<path d="M2308 5593 c7 -3 16 -2 19 1 4 3 -2 6 -13 5 -11 0 -14 -3 -6 -6z"/>
<path d="M4495 5361 c18 -5 19 -9 10 -28 -7 -13 -15 -20 -18 -16 -4 3 -7 -5
-7 -18 0 -19 6 -24 27 -26 78 -4 135 -15 122 -24 -19 -12 -69 -11 -69 1 0 6
-18 10 -40 10 -22 0 -40 -4 -40 -10 0 -5 13 -10 29 -10 16 0 57 -7 90 -16 50
-12 102 -14 284 -10 122 3 226 5 230 5 5 1 5 6 2 11 -6 10 -4 11 43 15 15 1
34 4 42 8 8 3 30 7 48 10 30 3 33 2 30 -22 -3 -26 -2 -26 77 -29 44 -2 117 0
163 3 75 6 82 9 82 28 0 16 3 18 12 9 7 -7 19 -12 27 -12 8 0 11 3 8 7 -4 3
-2 12 4 20 9 10 7 13 -9 13 -12 0 -21 8 -25 23 -2 12 -8 29 -11 39 -5 11 -2
18 11 21 10 2 -243 5 -562 5 -319 0 -571 -3 -560 -7z m115 -10 c0 -12 -21 -19
-37 -13 -22 8 -14 22 12 22 14 0 25 -4 25 -9z m190 -1 c0 -6 -32 -10 -75 -10
-43 0 -75 4 -75 10 0 6 32 10 75 10 43 0 75 -4 75 -10z m463 -37 c-13 -2 -33
-2 -45 0 -13 2 -3 4 22 4 25 0 35 -2 23 -4z m-80 -20 c-13 -2 -33 -2 -45 0
-13 2 -3 4 22 4 25 0 35 -2 23 -4z m-320 -30 c-13 -2 -33 -2 -45 0 -13 2 -3 4
22 4 25 0 35 -2 23 -4z m97 -23 c0 -6 -32 -9 -77 -9 -65 2 -71 3 -38 9 62 11
115 11 115 0z m-177 -7 c-13 -2 -33 -2 -45 0 -13 2 -3 4 22 4 25 0 35 -2 23
-4z"/>
<path d="M5648 5363 c6 -2 18 -2 25 0 6 3 1 5 -13 5 -14 0 -19 -2 -12 -5z"/>
<path d="M2030 4932 c0 -12 81 -102 92 -102 6 0 -1 11 -15 24 -15 14 -23 26
-19 29 4 2 1 2 -5 1 -7 -2 -13 2 -13 7 0 8 19 9 58 5 71 -7 57 1 -23 14 l-60
9 55 -3 c30 -2 64 0 74 3 13 5 2 8 -30 9 -27 1 -64 4 -81 6 -18 3 -33 1 -33
-2z"/>
<path d="M2203 4903 c9 -2 23 -2 30 0 6 3 -1 5 -18 5 -16 0 -22 -2 -12 -5z"/>
<path d="M2320 4896 c0 -2 7 -7 16 -10 8 -3 12 -2 9 4 -6 10 -25 14 -25 6z"/>
<path d="M2195 4870 c28 -4 39 -8 25 -9 -24 -3 -24 -3 5 -12 33 -10 95 -9 95
2 0 4 -19 5 -42 3 -29 -3 -37 -2 -24 4 19 8 18 9 -5 15 -13 4 -42 6 -64 5 -39
-1 -39 -1 10 -8z"/>
<path d="M7910 4920 c8 -5 20 -10 25 -10 6 0 3 5 -5 10 -8 5 -19 10 -25 10 -5
0 -3 -5 5 -10z"/>
<path d="M7796 4902 c-27 -9 -51 -24 -54 -32 -3 -13 -2 -13 6 -1 6 8 19 15 29
16 10 0 24 5 31 9 7 4 20 5 28 2 8 -3 12 -2 9 3 -3 5 5 12 17 14 19 4 20 4 3
5 -11 0 -42 -7 -69 -16z"/>
<path d="M8008 4903 c7 -3 16 -2 19 1 4 3 -2 6 -13 5 -11 0 -14 -3 -6 -6z"/>
<path d="M7848 4873 c6 -2 18 -2 25 0 6 3 1 5 -13 5 -14 0 -19 -2 -12 -5z"/>
<path d="M7978 4863 c7 -3 16 -2 19 1 4 3 -2 6 -13 5 -11 0 -14 -3 -6 -6z"/>
<path d="M7978 4833 c7 -3 16 -2 19 1 4 3 -2 6 -13 5 -11 0 -14 -3 -6 -6z"/>
<path d="M6605 4790 c-3 -6 1 -7 9 -4 18 7 21 14 7 14 -6 0 -13 -4 -16 -10z"/>
<path d="M3782 5020 c0 -14 2 -19 5 -12 2 6 2 18 0 25 -3 6 -5 1 -5 -13z"/>
<path d="M3735 4981 c-3 -5 -2 -12 3 -15 5 -3 9 1 9 9 0 17 -3 19 -12 6z"/>
<path d="M3515 4780 c3 -5 8 -10 11 -10 2 0 4 5 4 10 0 6 -5 10 -11 10 -5 0
-7 -4 -4 -10z"/>
<path d="M4400 4750 c-11 -11 -20 -27 -20 -35 0 -8 9 -24 20 -35 19 -19 33
-20 318 -20 286 0 299 1 320 20 27 25 28 51 4 73 -16 15 -54 17 -320 17 -289
0 -303 -1 -322 -20z"/>
<path d="M5170 4750 c-26 -26 -25 -42 3 -68 23 -21 30 -22 293 -22 258 0 271
1 292 20 26 25 27 38 6 68 -15 22 -17 22 -295 22 -266 0 -280 -1 -299 -20z"/>
<path d="M4919 4056 c-2 -2 -3 -45 -1 -95 3 -71 7 -91 18 -91 11 0 14 19 14
95 0 73 -3 95 -13 95 -8 0 -16 -2 -18 -4z"/>
<path d="M5210 4050 c0 -5 5 -10 11 -10 5 0 7 5 4 10 -3 6 -8 10 -11 10 -2 0
-4 -4 -4 -10z"/>
<path d="M5210 4017 c0 -10 8 -17 18 -17 9 0 13 4 7 8 -5 4 -13 11 -17 16 -5
5 -8 2 -8 -7z"/>
<path d="M5222 3935 c3 -14 2 -25 -2 -25 -4 0 -7 -7 -7 -15 0 -20 13 -19 21 1
10 26 7 64 -5 64 -7 0 -9 -10 -7 -25z"/>
<path d="M2300 3860 c-20 -6 -21 -8 -5 -8 11 0 29 3 40 8 25 11 -1 11 -35 0z"/>
<path d="M2388 3853 c12 -2 30 -2 40 0 9 3 -1 5 -23 4 -22 0 -30 -2 -17 -4z"/>
<path d="M7825 3860 c12 -5 14 -9 6 -9 -8 -1 -12 -3 -10 -6 3 -2 16 -1 29 2
22 6 23 7 4 14 -27 11 -54 10 -29 -1z"/>
<path d="M7688 3853 c7 -3 16 -2 19 1 4 3 -2 6 -13 5 -11 0 -14 -3 -6 -6z"/>
<path d="M7385 3770 c-3 -6 1 -7 9 -4 18 7 21 14 7 14 -6 0 -13 -4 -16 -10z"/>
<path d="M5915 3590 c10 -11 20 -20 23 -20 3 0 -3 9 -13 20 -10 11 -20 20 -23
20 -3 0 3 -9 13 -20z"/>
<path d="M6737 3145 c-21 -8 -65 -30 -97 -50 -73 -44 -90 -80 -62 -134 28 -57
291 -410 319 -428 22 -15 27 -15 57 0 57 27 56 58 -5 145 l-52 74 29 24 c16
13 32 23 36 24 3 0 20 21 37 47 44 66 43 129 -1 203 -56 93 -161 131 -261 95z
m128 -150 c34 -33 32 -67 -6 -99 -17 -14 -36 -26 -44 -26 -7 0 -31 24 -54 54
l-41 55 28 20 c38 28 87 27 117 -4z"/>
<path d="M3452 3061 c-57 -61 -304 -427 -309 -457 -9 -54 46 -91 95 -65 10 5
38 39 62 75 25 36 50 66 57 66 7 0 40 -14 74 -32 93 -47 180 -38 257 27 64 54
91 168 56 241 -31 66 -179 174 -237 174 -19 0 -38 -10 -55 -29z m114 -162 c59
-36 70 -79 29 -123 -14 -15 -35 -26 -50 -26 -27 0 -104 47 -105 63 0 5 16 27
35 50 19 22 35 44 35 49 0 14 21 9 56 -13z"/>
<path d="M4085 3041 l-80 -6 55 -27 c154 -76 392 -144 628 -180 122 -18 190
-22 397 -22 403 1 638 45 980 187 l100 42 -70 6 c-87 8 -1900 7 -2010 0z"/>
<path d="M6428 2963 c-9 -2 -21 -17 -28 -33 -10 -23 -9 -35 5 -64 32 -67 281
-440 307 -459 23 -17 31 -18 57 -7 31 12 47 40 42 73 -2 16 -287 456 -309 479
-10 10 -54 17 -74 11z"/>
<path d="M3874 2870 c-24 -9 -274 -507 -274 -544 0 -25 38 -66 61 -66 30 0 59
33 106 120 26 50 51 90 54 90 7 0 24 -68 50 -194 23 -106 79 -158 133 -122 32
20 33 42 6 162 -11 49 -20 92 -20 95 0 4 17 10 37 14 81 15 127 59 158 150 26
78 5 151 -59 200 -31 23 -165 86 -211 98 -11 3 -29 2 -41 -3z m123 -176 c65
-32 77 -81 30 -124 -22 -21 -35 -20 -99 7 -44 18 -45 25 -18 87 21 51 33 55
87 30z"/>
<path d="M6117 2831 c-176 -58 -175 -54 -52 -346 26 -60 63 -150 83 -198 20
-48 44 -97 55 -107 37 -40 107 -13 107 42 0 16 -16 66 -35 111 -19 44 -35 84
-35 88 0 20 39 12 75 -16 75 -59 178 -117 215 -122 58 -8 95 38 74 91 -3 9
-33 30 -65 47 -32 18 -76 46 -96 64 -34 30 -37 34 -26 58 7 15 15 49 19 76 12
95 -65 206 -162 230 -57 14 -56 15 -157 -18z m136 -122 c26 -12 47 -47 47 -79
0 -25 -39 -50 -88 -57 l-40 -5 -21 57 c-12 32 -20 59 -18 61 7 7 73 33 84 34
7 0 23 -5 36 -11z"/>
<path d="M5863 2742 c-90 -14 -300 -74 -310 -89 -20 -26 -15 -70 10 -93 18
-17 29 -20 57 -14 77 15 67 30 146 -224 39 -128 79 -241 90 -253 25 -28 71
-22 97 13 l21 28 -72 238 c-40 131 -72 241 -72 244 0 3 17 9 38 13 69 13 100
64 67 112 -16 23 -38 30 -72 25z"/>
<path d="M4337 2702 c-20 -22 -159 -575 -150 -599 10 -26 34 -42 63 -43 31 0
44 8 59 37 13 26 141 542 141 571 0 46 -80 71 -113 34z"/>
<path d="M4566 2658 c-29 -25 -26 -13 -71 -385 -14 -117 -23 -224 -19 -238 12
-49 82 -62 110 -20 9 15 22 72 30 142 8 65 18 140 22 168 l7 49 60 -144 c33
-80 74 -172 90 -205 29 -57 32 -60 71 -63 70 -5 70 -5 88 326 10 186 12 301 6
317 -19 51 -106 40 -122 -15 -4 -14 -11 -81 -15 -148 l-8 -124 -44 104 c-76
179 -100 223 -130 241 -38 22 -45 21 -75 -5z"/>
<path d="M5074 2633 c-49 -5 -77 -31 -77 -73 0 -46 18 -60 79 -60 49 0 54 -2
54 -22 1 -35 11 -188 24 -348 11 -139 12 -145 37 -159 33 -18 76 -8 90 23 8
16 6 91 -5 261 -12 188 -13 241 -3 247 6 4 31 8 54 8 45 0 73 25 73 65 0 11
-7 31 -16 43 -14 21 -21 22 -142 20 -70 -1 -146 -3 -168 -5z"/>
</g>
</svg>
