<svg id="Слой_1" data-name="Слой 1" xmlns="http://www.w3.org/2000/svg" xmlns:xlink="http://www.w3.org/1999/xlink" viewBox="0 0 566.93 566.93"><defs><style>.cls-1,.cls-4{fill:none;}.cls-2{clip-path:url(#clip-path);}.cls-3{fill:#fff;}.cls-3,.cls-4{stroke:#1d1d1b;stroke-linecap:round;stroke-miterlimit:10;stroke-width:4px;}.cls-5{fill:#1d1d1b;}</style><clipPath id="clip-path"><rect class="cls-1" width="566.93" height="566.93"/></clipPath></defs><g class="cls-2"><g class="cls-2"><path class="cls-3" d="M237.86,124.73H372.77a5.65,5.65,0,0,1,5.66,5.66V416.71a5.66,5.66,0,0,1-5.66,5.66H174.32a5.67,5.67,0,0,1-5.66-5.66V193.9"/><path class="cls-4" d="M237.86,124.73v63.48a5.69,5.69,0,0,1-5.69,5.69H168.66"/><path class="cls-4" d="M388.35,138.09V426.38a5.91,5.91,0,0,1-5.91,5.9H182.25"/><path class="cls-4" d="M398.26,148.11V436.29a5.9,5.9,0,0,1-5.9,5.91H191.89"/><line class="cls-4" x1="237.86" y1="147.78" x2="353.45" y2="147.78"/><line class="cls-4" x1="237.86" y1="166.21" x2="353.45" y2="166.21"/><path class="cls-5" d="M168.67,392.94v23.77a5.66,5.66,0,0,0,5.65,5.66H372.77a5.66,5.66,0,0,0,5.66-5.66V392.94Z"/></g></g><line class="cls-4" x1="237.86" y1="124.73" x2="168.68" y2="193.91"/></svg>