<svg id="Слой_1" data-name="Слой 1" xmlns="http://www.w3.org/2000/svg" xmlns:xlink="http://www.w3.org/1999/xlink" viewBox="0 0 566.93 566.93"><defs><style>.cls-1,.cls-4{fill:none;}.cls-2{clip-path:url(#clip-path);}.cls-3{fill:#fff;}.cls-3,.cls-4{stroke:#1d1d1b;stroke-linecap:round;stroke-miterlimit:10;stroke-width:4px;}</style><clipPath id="clip-path"><rect class="cls-1" width="566.93" height="566.93"/></clipPath></defs><g class="cls-2"><g class="cls-2"><path class="cls-3" d="M170.56,434l19.54,19.49a6.13,6.13,0,0,0,4.32,1.78h198a5.79,5.79,0,0,0,5.8-5.79V163.7a6.12,6.12,0,0,0-1.77-4.31l-19.62-19.82"/></g></g><path class="cls-4" d="M388.35,151.16v288.4a5.8,5.8,0,0,1-5.8,5.8H182.25"/><path class="cls-3" d="M174.32,137.8a5.66,5.66,0,0,0-5.65,5.66V429.78a5.65,5.65,0,0,0,5.65,5.66H372.77a5.65,5.65,0,0,0,5.66-5.66V143.46a5.66,5.66,0,0,0-5.66-5.66h-19.4"/><path class="cls-4" d="M342.66,112.45a9.63,9.63,0,0,0-3.8-.8c-8.57,0-15.52,11.71-15.52,26.15s7,26.15,15.52,26.15a9.62,9.62,0,0,0,3.8-.79"/><path class="cls-4" d="M322.82,112.45a9.63,9.63,0,0,0-3.8-.8c-8.57,0-15.52,11.71-15.52,26.15S310.45,164,319,164a9.62,9.62,0,0,0,3.8-.79"/><path class="cls-4" d="M303,112.45a9.59,9.59,0,0,0-3.8-.8c-8.57,0-15.51,11.71-15.51,26.15S290.6,164,299.17,164a9.58,9.58,0,0,0,3.8-.79"/><path class="cls-4" d="M283.13,112.45a9.59,9.59,0,0,0-3.8-.8c-8.57,0-15.52,11.71-15.52,26.15S270.76,164,279.33,164a9.62,9.62,0,0,0,3.8-.79"/><path class="cls-4" d="M263.29,112.45a9.63,9.63,0,0,0-3.8-.8c-8.57,0-15.52,11.71-15.52,26.15S250.92,164,259.49,164a9.62,9.62,0,0,0,3.8-.79"/><path class="cls-4" d="M243.45,112.45a9.63,9.63,0,0,0-3.8-.8c-8.57,0-15.52,11.71-15.52,26.15s7,26.15,15.52,26.15a9.62,9.62,0,0,0,3.8-.79"/><path class="cls-4" d="M223.6,112.45a9.59,9.59,0,0,0-3.8-.8c-8.57,0-15.51,11.71-15.51,26.15S211.23,164,219.8,164a9.58,9.58,0,0,0,3.8-.79"/><path class="cls-4" d="M203.76,112.45a9.63,9.63,0,0,0-3.8-.8c-8.57,0-15.52,11.71-15.52,26.15S191.39,164,200,164a9.62,9.62,0,0,0,3.8-.79"/><path class="cls-4" d="M373.73,124.8c-2.68-7.85-7.7-13.15-13.45-13.15-8.57,0-15.52,11.71-15.52,26.15S351.71,164,360.28,164a9.8,9.8,0,0,0,3.8-.79"/><line class="cls-4" x1="204.95" y1="241.4" x2="345.19" y2="241.4"/><line class="cls-4" x1="204.95" y1="260.45" x2="345.19" y2="260.45"/><line class="cls-4" x1="235.82" y1="333.01" x2="314.32" y2="333.01"/><line class="cls-4" x1="235.82" y1="352.07" x2="314.32" y2="352.07"/></svg>