<svg id="Слой_1" data-name="Слой 1" xmlns="http://www.w3.org/2000/svg" xmlns:xlink="http://www.w3.org/1999/xlink" viewBox="0 0 566.93 566.93"><defs><style>.cls-1,.cls-4,.cls-5{fill:none;}.cls-2{clip-path:url(#clip-path);}.cls-3{fill:#fff;}.cls-4,.cls-5{stroke:#1d1d1b;stroke-linecap:round;stroke-width:4px;}.cls-4{stroke-miterlimit:10;}.cls-5{stroke-linejoin:round;}.cls-6{fill:#1d1d1b;}</style><clipPath id="clip-path"><rect class="cls-1" width="566.93" height="566.93"/></clipPath></defs><g class="cls-2"><g class="cls-2"><path class="cls-3" d="M379,435.62H180.84A5.82,5.82,0,0,1,175,429.8v-286a5.82,5.82,0,0,1,5.82-5.82H379a5.81,5.81,0,0,1,5.82,5.82v286a5.81,5.81,0,0,1-5.82,5.82"/><rect class="cls-4" x="175.02" y="137.99" width="209.76" height="297.64" rx="5.82"/><path class="cls-4" d="M394.83,148V439.85a5.83,5.83,0,0,1-5.82,5.82H185.07"/><path class="cls-4" d="M404.88,158.08V449.89a5.83,5.83,0,0,1-5.83,5.83H195.11"/><rect class="cls-3" x="194.86" y="157.83" width="170.08" height="257.95"/><rect class="cls-5" x="194.86" y="157.83" width="170.08" height="257.95"/><line class="cls-4" x1="228.42" y1="247.4" x2="331.39" y2="247.4"/><line class="cls-4" x1="228.42" y1="265.79" x2="331.39" y2="265.79"/><line class="cls-4" x1="239.91" y1="315.75" x2="319.9" y2="315.75"/><line class="cls-4" x1="239.91" y1="334.13" x2="319.9" y2="334.13"/><path class="cls-3" d="M186.13,226.16A7.15,7.15,0,0,1,179,219V143.89a7.16,7.16,0,0,1,7.15-7.15h37.5a7.15,7.15,0,0,1,7.15,7.15V219a7.14,7.14,0,0,1-11.8,5.42l-14.1-12.1-14.1,12.1a7.12,7.12,0,0,1-4.64,1.73v0Z"/><path class="cls-3" d="M222.67,220.13l-16.83-14.44a1.46,1.46,0,0,0-1.92,0l-16.83,14.44a1.48,1.48,0,0,1-2.44-1.12V143.89a1.48,1.48,0,0,1,1.48-1.48h37.5a1.48,1.48,0,0,1,1.48,1.48V219a1.48,1.48,0,0,1-2.44,1.12"/><path class="cls-5" d="M222.67,220.13l-16.83-14.44a1.46,1.46,0,0,0-1.92,0l-16.83,14.44a1.48,1.48,0,0,1-2.44-1.12V143.89a1.48,1.48,0,0,1,1.48-1.48h37.5a1.48,1.48,0,0,1,1.48,1.48V219A1.48,1.48,0,0,1,222.67,220.13Z"/><path class="cls-3" d="M214.29,194a12.41,12.41,0,0,1-8-2.93,2,2,0,0,0-1.3-.48,2,2,0,0,0-1.3.48,12.39,12.39,0,0,1-8,2.93,12.56,12.56,0,0,1-12.22-9.52,2,2,0,0,0-2-1.53h-.14c-.31,0-.6,0-.89,0a12.56,12.56,0,0,1-11.64-17.26,2,2,0,0,0-.8-2.48,12.56,12.56,0,0,1,0-21.3,2,2,0,0,0,.8-2.47,12.57,12.57,0,0,1,11.64-17.27l.89,0h.14a2,2,0,0,0,2-1.54,12.58,12.58,0,0,1,12.22-9.52,12.4,12.4,0,0,1,8,2.94,2.07,2.07,0,0,0,1.3.47,2,2,0,0,0,1.3-.47,12.42,12.42,0,0,1,8-2.94,12.58,12.58,0,0,1,12.22,9.52,2,2,0,0,0,2,1.54h.14c.29,0,.59,0,.89,0a12.57,12.57,0,0,1,11.63,17.27,2,2,0,0,0,.81,2.47,12.57,12.57,0,0,1,0,21.3,2,2,0,0,0-.81,2.48A12.57,12.57,0,0,1,229.5,183a8.82,8.82,0,0,1-.89,0h-.14a2,2,0,0,0-2,1.53A12.57,12.57,0,0,1,214.29,194Z"/><path class="cls-3" d="M209.63,118.19h0A7.3,7.3,0,0,1,221.39,122a7.3,7.3,0,0,0,7.58,5.51,7.29,7.29,0,0,1,7.27,10,7.3,7.3,0,0,0,2.9,8.91,7.3,7.3,0,0,1,0,12.37,7.29,7.29,0,0,0-2.9,8.91h0a7.29,7.29,0,0,1-7.27,10,7.28,7.28,0,0,0-7.58,5.5,7.3,7.3,0,0,1-11.76,3.83,7.3,7.3,0,0,0-9.37,0,7.31,7.31,0,0,1-11.77-3.83,7.28,7.28,0,0,0-7.58-5.5,7.3,7.3,0,0,1-7.27-10h0a7.3,7.3,0,0,0-2.89-8.91,7.29,7.29,0,0,1,0-12.37,7.3,7.3,0,0,0,2.89-8.91,7.3,7.3,0,0,1,7.27-10,7.3,7.3,0,0,0,7.58-5.51,7.3,7.3,0,0,1,11.77-3.82,7.3,7.3,0,0,0,9.37,0"/><path class="cls-5" d="M209.63,118.19h0A7.3,7.3,0,0,1,221.39,122a7.3,7.3,0,0,0,7.58,5.51,7.29,7.29,0,0,1,7.27,10,7.3,7.3,0,0,0,2.9,8.91,7.3,7.3,0,0,1,0,12.37,7.29,7.29,0,0,0-2.9,8.91h0a7.29,7.29,0,0,1-7.27,10,7.28,7.28,0,0,0-7.58,5.5,7.3,7.3,0,0,1-11.76,3.83,7.3,7.3,0,0,0-9.37,0,7.31,7.31,0,0,1-11.77-3.83,7.28,7.28,0,0,0-7.58-5.5,7.3,7.3,0,0,1-7.27-10h0a7.3,7.3,0,0,0-2.89-8.91,7.29,7.29,0,0,1,0-12.37,7.3,7.3,0,0,0,2.89-8.91,7.3,7.3,0,0,1,7.27-10,7.3,7.3,0,0,0,7.58-5.51,7.3,7.3,0,0,1,11.77-3.82A7.3,7.3,0,0,0,209.63,118.19Z"/><path class="cls-6" d="M229.55,152.62a24.61,24.61,0,1,0-24.61,24.61,24.61,24.61,0,0,0,24.61-24.61"/></g></g></svg>