<svg id="Слой_1" data-name="Слой 1" xmlns="http://www.w3.org/2000/svg" xmlns:xlink="http://www.w3.org/1999/xlink" viewBox="0 0 566.93 566.93"><defs><style>.cls-1,.cls-4{fill:none;}.cls-2{clip-path:url(#clip-path);}.cls-3{fill:#fff;}.cls-3,.cls-4{stroke:#1d1d1b;stroke-linecap:round;stroke-miterlimit:10;stroke-width:4px;}.cls-5{fill:#1d1d1b;}</style><clipPath id="clip-path"><rect class="cls-1" width="566.93" height="566.93"/></clipPath></defs><g class="cls-2"><g class="cls-2"><path class="cls-3" d="M465.51,356.32l-182,36.52V186.51l179.57-36a6.31,6.31,0,0,1,7.55,6.19V350.14A6.31,6.31,0,0,1,465.51,356.32Z"/><path class="cls-3" d="M101.42,356.32l182,36.52V186.51l-179.56-36a6.31,6.31,0,0,0-7.55,6.19V350.14A6.31,6.31,0,0,0,101.42,356.32Z"/><line class="cls-4" x1="328.76" y1="249.79" x2="425.29" y2="230.43"/><line class="cls-4" x1="328.76" y1="268.93" x2="425.29" y2="249.56"/><line class="cls-4" x1="328.76" y1="289.67" x2="425.29" y2="270.31"/><path class="cls-5" d="M167.88,261.25l21.53,26.66a.78.78,0,0,0,1.11.1l21.42-18.24c4.68-5.86,1.8-15.79-5.88-20.32-6.23-3.68-12.95-2.18-15.84,2.8a.32.32,0,0,1-.58,0c-2.87-6.22-9.63-10.51-15.89-9.33-7.67,1.48-10.56,10.5-5.87,18.35"/><line class="cls-4" x1="101.42" y1="367.48" x2="283.46" y2="404"/><line class="cls-4" x1="465.51" y1="367.48" x2="283.46" y2="404"/><line class="cls-4" x1="101.42" y1="380.05" x2="283.46" y2="416.57"/><line class="cls-4" x1="465.51" y1="380.05" x2="283.46" y2="416.57"/></g></g></svg>