<svg id="Слой_1" data-name="Слой 1" xmlns="http://www.w3.org/2000/svg" xmlns:xlink="http://www.w3.org/1999/xlink" viewBox="0 0 566.93 566.93"><defs><style>.cls-1,.cls-4{fill:none;}.cls-2{clip-path:url(#clip-path);}.cls-3,.cls-5{fill:#fff;}.cls-3,.cls-4{stroke:#1d1d1b;stroke-linecap:round;stroke-miterlimit:10;stroke-width:4px;}.cls-6{fill:#1d1d1b;}</style><clipPath id="clip-path"><rect class="cls-1" width="566.93" height="566.93"/></clipPath></defs><g class="cls-2"><g class="cls-2"><rect class="cls-3" x="168.4" y="186.59" width="207.68" height="207.68" rx="6.43"/><path class="cls-4" d="M387.3,197.82V399.07a6.41,6.41,0,0,1-6.42,6.42H179.63"/><path class="cls-4" d="M398.53,209.05V410.3a6.43,6.43,0,0,1-6.43,6.42H190.85"/><path class="cls-5" d="M351.63,357.51,176,392.74a6.35,6.35,0,0,1-7.6-6.23V191.79a6.34,6.34,0,0,1,5.1-6.22l175.63-35.24a6.35,6.35,0,0,1,7.6,6.23V351.28a6.35,6.35,0,0,1-5.1,6.23"/><path class="cls-4" d="M351.63,357.51,176,392.74a6.35,6.35,0,0,1-7.6-6.23V191.79a6.34,6.34,0,0,1,5.1-6.22l175.63-35.24a6.35,6.35,0,0,1,7.6,6.23V351.28A6.35,6.35,0,0,1,351.63,357.51Z"/><line class="cls-4" x1="212.73" y1="222.75" x2="309.9" y2="203.26"/><line class="cls-4" x1="212.73" y1="242.01" x2="309.9" y2="222.52"/><line class="cls-4" x1="212.73" y1="262.89" x2="309.9" y2="243.4"/><path class="cls-6" d="M234.78,317.3l20.83,18.18a1.73,1.73,0,0,0,2.48-.21l21-25.95c4.71-7.95,1.81-17.21-5.92-18.8-6.23-1.25-12.94,2.94-15.89,9.09a.45.45,0,0,1-.79.06c-3-4.93-9.65-6.42-15.83-2.79-7.73,4.5-10.63,14.47-5.92,20.42"/></g></g></svg>