<svg id="Слой_1" data-name="Слой 1" xmlns="http://www.w3.org/2000/svg" xmlns:xlink="http://www.w3.org/1999/xlink" viewBox="0 0 566.93 566.93"><defs><style>.cls-1,.cls-4{fill:none;}.cls-2{clip-path:url(#clip-path);}.cls-3{fill:#fff;}.cls-3,.cls-4{stroke:#1d1d1b;stroke-linecap:round;stroke-miterlimit:10;stroke-width:4px;}</style><clipPath id="clip-path"><rect class="cls-1" width="566.93" height="566.93"/></clipPath></defs><g class="cls-2"><g class="cls-2"><path class="cls-3" d="M438.41,170.56,457.9,190.1a6.13,6.13,0,0,1,1.78,4.32v198a5.79,5.79,0,0,1-5.8,5.8H168.11a6.12,6.12,0,0,1-4.31-1.77L144,376.87"/></g></g><path class="cls-3" d="M142.21,174.32a5.65,5.65,0,0,1,5.66-5.65H434.19a5.66,5.66,0,0,1,5.66,5.65V372.77a5.66,5.66,0,0,1-5.66,5.66H147.87a5.65,5.65,0,0,1-5.66-5.66v-19.4"/><path class="cls-4" d="M155.57,388.35H444a5.8,5.8,0,0,0,5.8-5.8V182.25"/><line class="cls-4" x1="204.76" y1="239.69" x2="398.91" y2="239.69"/><line class="cls-4" x1="204.76" y1="261.33" x2="398.91" y2="261.33"/><line class="cls-4" x1="238.54" y1="307.26" x2="365.12" y2="307.26"/><path class="cls-4" d="M108,322.82a9.62,9.62,0,0,1-.79-3.8c0-8.57,11.7-15.52,26.15-15.52s26.14,6.95,26.14,15.52a9.62,9.62,0,0,1-.79,3.8"/><path class="cls-4" d="M108,343.45a9.62,9.62,0,0,1-.79-3.8c0-8.57,11.7-15.52,26.15-15.52s26.14,6.95,26.14,15.52a9.62,9.62,0,0,1-.79,3.8"/><path class="cls-4" d="M108,303a9.58,9.58,0,0,1-.79-3.8c0-8.57,11.7-15.51,26.15-15.51s26.14,6.94,26.14,15.51a9.58,9.58,0,0,1-.79,3.8"/><path class="cls-4" d="M108,283.13a9.62,9.62,0,0,1-.79-3.8c0-8.57,11.7-15.52,26.15-15.52s26.14,6.95,26.14,15.52a9.62,9.62,0,0,1-.79,3.8"/><path class="cls-4" d="M108,263.29a9.62,9.62,0,0,1-.79-3.8c0-8.57,11.7-15.52,26.15-15.52s26.14,6.95,26.14,15.52a9.62,9.62,0,0,1-.79,3.8"/><path class="cls-4" d="M108,243.45a9.62,9.62,0,0,1-.79-3.8c0-8.57,11.7-15.52,26.15-15.52s26.14,7,26.14,15.52a9.62,9.62,0,0,1-.79,3.8"/><path class="cls-4" d="M108,223.6a9.58,9.58,0,0,1-.79-3.8c0-8.57,11.7-15.51,26.15-15.51s26.14,6.94,26.14,15.51a9.58,9.58,0,0,1-.79,3.8"/><path class="cls-4" d="M108,203.76a9.62,9.62,0,0,1-.79-3.8c0-8.57,11.7-15.52,26.15-15.52s26.14,6.95,26.14,15.52a9.62,9.62,0,0,1-.79,3.8"/><path class="cls-4" d="M128,375.46c-11.87-1.47-20.77-7.71-20.77-15.19,0-8.57,11.7-15.51,26.14-15.51s26.15,6.94,26.15,15.51a9.69,9.69,0,0,1-.92,4.09"/></svg>