<svg id="Слой_1" data-name="Слой 1" xmlns="http://www.w3.org/2000/svg" xmlns:xlink="http://www.w3.org/1999/xlink" viewBox="0 0 566.93 566.93"><defs><style>.cls-1,.cls-4{fill:none;}.cls-2{clip-path:url(#clip-path);}.cls-3{fill:#fff;}.cls-3,.cls-4{stroke:#1d1d1b;stroke-linecap:round;stroke-miterlimit:10;stroke-width:4px;}.cls-5{fill:#1d1d1b;}</style><clipPath id="clip-path"><rect class="cls-1" width="566.93" height="566.93"/></clipPath></defs><g class="cls-2"><g class="cls-2"><path class="cls-3" d="M142.54,135.13H425.68a5.73,5.73,0,0,1,5.74,5.73V273.4a6.82,6.82,0,0,1-.07.9L410.18,408c-.36,2.31-2,4-3.94,4H119.66c-2.52,0-4.42-2.81-3.94-5.83l21-132.74a5.46,5.46,0,0,0,.07-.9V140.86A5.73,5.73,0,0,1,142.54,135.13Z"/><path class="cls-4" d="M441.35,145.06V283.79l-21.23,134.1c-.37,2.31-2,4-3.94,4H128.26"/><path class="cls-4" d="M451.28,155V293.72L430.05,427.83c-.37,2.3-2,4-3.94,4H138.29"/><path class="cls-5" d="M136.81,140.86v76.33a158.48,158.48,0,0,0,49.11,7.63c66.42,0,120.26-39.27,120.26-87.7,0-.67,0-1.33,0-2H142.54a5.74,5.74,0,0,0-5.73,5.73"/></g></g><line class="cls-4" x1="136.81" y1="272.91" x2="430.36" y2="272.91"/><line class="cls-4" x1="204.6" y1="314.43" x2="359.18" y2="314.43"/><line class="cls-4" x1="168.35" y1="330.25" x2="392.76" y2="330.25"/><line class="cls-4" x1="181.39" y1="346.08" x2="374.72" y2="346.08"/><line class="cls-4" x1="199.44" y1="361.91" x2="354.01" y2="361.91"/></svg>