<svg id="Слой_1" data-name="Слой 1" xmlns="http://www.w3.org/2000/svg" xmlns:xlink="http://www.w3.org/1999/xlink" viewBox="0 0 566.93 566.93"><defs><style>.cls-1,.cls-4{fill:none;}.cls-2,.cls-5{fill:#fff;}.cls-3{clip-path:url(#clip-path);}.cls-4,.cls-5{stroke:#1d1d1b;stroke-linecap:round;stroke-width:4px;}.cls-4{stroke-miterlimit:10;}.cls-5{stroke-linejoin:round;}.cls-6{fill:#1d1d1b;}</style><clipPath id="clip-path"><rect class="cls-1" width="566.93" height="566.93"/></clipPath></defs><path class="cls-2" d="M249.46,327.3l-.52-.75a56.69,56.69,0,0,1,82.82-75.89.36.36,0,0,0,0-.1,18.7,18.7,0,0,0-8.73-17.87,18.81,18.81,0,0,1-7.47-23,18.81,18.81,0,0,0-18.74-25.8,18.81,18.81,0,0,1-19.54-14.2A18.81,18.81,0,0,0,247,159.87a18.82,18.82,0,0,1-24.16,0,18.8,18.8,0,0,0-30.32,9.85,18.82,18.82,0,0,1-19.55,14.2,18.82,18.82,0,0,0-18.74,25.8,18.81,18.81,0,0,1-7.46,23,18.81,18.81,0,0,0,0,31.89,18.81,18.81,0,0,1,7.46,23,18.81,18.81,0,0,0,18.74,25.8,18.83,18.83,0,0,1,19.55,14.2,18.81,18.81,0,0,0,30.32,9.86,18.8,18.8,0,0,1,24.16,0,18.66,18.66,0,0,0,15.83,4l.28-.07Z"/><g class="cls-3"><g class="cls-3"><path class="cls-4" d="M262.8,341.42a18.66,18.66,0,0,1-15.83-4,18.8,18.8,0,0,0-24.16,0,18.81,18.81,0,0,1-30.32-9.86,18.83,18.83,0,0,0-19.55-14.2,18.81,18.81,0,0,1-18.74-25.8,18.81,18.81,0,0,0-7.46-23,18.81,18.81,0,0,1,0-31.89,18.81,18.81,0,0,0,7.46-23,18.82,18.82,0,0,1,18.74-25.8,18.82,18.82,0,0,0,19.55-14.2,18.8,18.8,0,0,1,30.32-9.85,18.82,18.82,0,0,0,24.16,0h0a18.81,18.81,0,0,1,30.33,9.85,18.81,18.81,0,0,0,19.54,14.2,18.81,18.81,0,0,1,18.74,25.8,18.81,18.81,0,0,0,7.47,23,18.7,18.7,0,0,1,8.73,17.87"/><path class="cls-5" d="M258.05,320.24l79,81.58,79-81.6a45.62,45.62,0,1,0-79-44.9,45.62,45.62,0,1,0-79,44.92Z"/><path class="cls-4" d="M345.26,410l79-81.6a45.26,45.26,0,0,0,7.21-16.84"/></g></g><path class="cls-6" d="M241.38,277.62a56.78,56.78,0,0,1,54.2-40.05,57.05,57.05,0,0,1,6.56.39,68.17,68.17,0,1,0-58.86,78.23A56.23,56.23,0,0,1,241.38,277.62Z"/></svg>