<svg id="Слой_1" data-name="Слой 1" xmlns="http://www.w3.org/2000/svg" xmlns:xlink="http://www.w3.org/1999/xlink" viewBox="0 0 566.93 566.93"><defs><style>.cls-1,.cls-4{fill:none;}.cls-2{clip-path:url(#clip-path);}.cls-3,.cls-6{fill:#fff;}.cls-3,.cls-4{stroke:#1d1d1b;stroke-linecap:round;stroke-miterlimit:10;stroke-width:4px;}.cls-5{fill:#1d1d1b;}</style><clipPath id="clip-path"><rect class="cls-1" width="566.93" height="566.93"/></clipPath></defs><g class="cls-2"><g class="cls-2"><path class="cls-3" d="M424.52,393.57l-230.7-77.32a5.9,5.9,0,0,1-3.72-7.47l41.28-123.19a5.91,5.91,0,0,1,7.48-3.72l230.7,77.31a5.91,5.91,0,0,1,3.72,7.47L432,389.84A5.9,5.9,0,0,1,424.52,393.57Z"/><line class="cls-4" x1="334.37" y1="265.79" x2="432.17" y2="298.57"/><line class="cls-4" x1="327.49" y1="286.31" x2="425.29" y2="319.09"/><line class="cls-4" x1="320.61" y1="306.83" x2="418.42" y2="339.6"/><path class="cls-5" d="M298.35,276.54a29.06,29.06,0,1,0-36.79,18.33,29.05,29.05,0,0,0,36.79-18.33"/><path class="cls-6" d="M368.52,310.6,132.71,370.55a5.9,5.9,0,0,1-7.17-4.27l-32-125.92a5.9,5.9,0,0,1,4.26-7.18L333.6,173.24a5.91,5.91,0,0,1,7.18,4.27l32,125.92a5.9,5.9,0,0,1-4.27,7.17"/><path class="cls-4" d="M368.52,310.6,132.71,370.55a5.9,5.9,0,0,1-7.17-4.27l-32-125.92a5.9,5.9,0,0,1,4.26-7.18L333.6,173.24a5.91,5.91,0,0,1,7.18,4.27l32,125.92A5.9,5.9,0,0,1,368.52,310.6Z"/><line class="cls-4" x1="223.54" y1="252.01" x2="323.51" y2="226.6"/><line class="cls-4" x1="228.87" y1="272.98" x2="328.84" y2="247.57"/><line class="cls-4" x1="234.2" y1="293.96" x2="334.17" y2="268.54"/><path class="cls-5" d="M199.09,280.55a29.07,29.07,0,1,0-21,35.33,29.06,29.06,0,0,0,21-35.33"/></g></g></svg>